<?xml version="1.0" standalone="no"?>
<!DOCTYPE svg PUBLIC "-//W3C//DTD SVG 1.1//EN" "http://www.w3.org/Graphics/SVG/1.1/DTD/svg11.dtd" >
<svg xmlns="http://www.w3.org/2000/svg" xmlns:xlink="http://www.w3.org/1999/xlink" version="1.1">
<metadata></metadata>
<defs>
<font id="matrixinlinescriptregular" horiz-adv-x="1040" >
<font-face units-per-em="2048" ascent="1638" descent="-410" />
<missing-glyph horiz-adv-x="512" />
<glyph horiz-adv-x="0" />
<glyph unicode="&#xd;" horiz-adv-x="512" />
<glyph unicode=" "  horiz-adv-x="512" />
<glyph unicode="&#x09;" horiz-adv-x="512" />
<glyph unicode="&#xa0;" horiz-adv-x="512" />
<glyph unicode="!" horiz-adv-x="555" d="M127 111q8 53 50 91t95 38q55 0 87 -38t24 -91t-49 -90t-96 -37q-53 0 -86 36.5t-25 90.5zM229 1049q0 74 56.5 128t126.5 54q57 0 97 -40t40 -97q0 -20 -6 -45l-219 -734h-82zM283 1057l10 -668l113 791q-45 0 -84 -37t-39 -86z" />
<glyph unicode="&#x22;" horiz-adv-x="821" d="M211 1077q-8 55 39 104.5t106 49.5q47 0 80 -33t33 -78q0 -25 -8 -43l-139 -276h-50zM580 1077q-10 55 37 104.5t106 49.5q47 0 80 -33t33 -78q0 -25 -9 -43l-139 -276h-47z" />
<glyph unicode="#" horiz-adv-x="598" d="M66 580l49 151h86l55 166h-86l49 150h86l55 161h82l-55 -161h123l55 161h82l-55 -161h84l-49 -150h-86l-54 -166h84l-49 -151h-86l-57 -162h-82l57 162h-123l-57 -162h-82l58 162h-84zM283 731h123l53 166h-123z" />
<glyph unicode="$" horiz-adv-x="854" d="M123 360q0 16 5 49t48 76t96 43q47 0 80 -32.5t33 -79.5v-19q-10 -78 -90 -116q37 -37 121 -37q51 0 94 31.5t47 59t4 44.5q0 70 -63 115l-191 151q-57 45 -92 93t-35 100q0 12 9.5 75.5t92.5 135t195 88.5l35 241h117l-35 -241q74 -12 129 -58.5t55 -117.5q0 -16 -5 -46 t-44 -65t-88 -35t-79 34t-21 85q8 45 43 80q-25 14 -58 14q-47 0 -89 -31.5t-50 -78.5q-2 -29 10.5 -48.5t48.5 -48.5l218 -180q55 -45 83.5 -89t28.5 -108q0 -23 -10 -91t-98 -139t-215 -83l-31 -217h-117l31 219q-96 18 -154.5 85t-58.5 142zM236 870q-6 -39 15 -84 t85 -94l203 -160q39 -31 57 -64.5t18 -82.5q0 -16 -4 -46t-30.5 -58.5t-67.5 -47.5q84 23 121 54.5t43 71.5t6 57q0 49 -25.5 87t-74.5 77l-205 163q-37 31 -64.5 69t-21.5 79q8 53 37.5 103t87.5 89q-78 -27 -123 -78t-57 -135z" />
<glyph unicode="%" horiz-adv-x="1091" d="M106 16l715 1094h-239q27 -45 26 -104q0 -20 -7 -73.5t-84 -122.5t-173 -69q-90 0 -150.5 58.5t-60.5 144.5q0 20 8.5 74.5t88 122t178.5 67.5h776l-1037 -1243zM303 950q0 -49 26.5 -82.5t65.5 -33.5q43 0 82 40.5t44 74.5t5 50q0 49 -26.5 83t-65.5 34q-45 0 -88 -43 t-43 -102v-21zM334 276l631 834h-86zM524 203q0 20 8.5 74.5t88 122t180.5 67.5q84 0 141 -57.5t57 -141.5q0 -23 -2 -35q-14 -96 -91 -164.5t-173 -68.5q-86 0 -147.5 59.5t-61.5 143.5zM692 209q0 -49 26.5 -83t65.5 -34q45 0 84 41t44.5 75t5.5 50q0 51 -27 84t-66 33 q-45 0 -85 -41t-48 -101v-24z" />
<glyph unicode="&#x26;" horiz-adv-x="1222" d="M72 297q0 25 9 90.5t99 151.5t193 102q-76 27 -124 98.5t-48 143.5v22q25 166 164 246t290 80q150 0 243 -65.5t93 -186.5l-98 -47q-18 82 -68.5 115.5t-138.5 33.5q-80 0 -146.5 -48t-73.5 -96t-7 -69q0 -82 51 -129t88 -47h12l-18 -135q-78 0 -161 -61.5t-91 -116.5 t-8 -72q0 -76 66.5 -123t140.5 -47q129 0 223 82t115 227l8 52h-101q-51 0 -57 -49l-10 -68h-74l16 106q10 84 79 144.5t155 60.5h192q49 0 58 51l10 68h72l-15 -109q-12 -80 -69 -136t-137 -66l-13 -92q-27 -188 -180.5 -306t-347.5 -118q-168 0 -279.5 89t-111.5 224z M123 297q0 -111 92 -186.5t209 -75.5q-98 29 -161.5 96.5t-63.5 165.5q0 25 2 37q14 104 63 160.5t129 103.5q-92 -14 -173 -85t-89 -131t-8 -85zM250 887q0 -74 51 -131.5t113 -71.5q-43 39 -63.5 79t-20.5 95l4 49q10 84 66.5 156t134.5 104q-94 -18 -181.5 -86 t-101.5 -170q-2 -8 -2 -24zM717 518q18 18 38.5 24.5t53.5 6.5h174q55 0 110.5 43.5t65.5 109.5q-20 -51 -55 -75.5t-86 -24.5h-174q-37 0 -75 -22.5t-52 -61.5z" />
<glyph unicode="'" horiz-adv-x="466" d="M219 1077q-10 55 37 104.5t109 49.5q47 0 78.5 -32t31.5 -79q0 -25 -8 -43l-139 -276h-47z" />
<glyph unicode="(" horiz-adv-x="593" d="M119 461q0 61 22.5 230t161.5 359.5t387 329.5l12 -59q-162 -178 -239.5 -334t-97 -298t-23.5 -191t-4 -101q0 -143 37 -253.5t127 -256.5l-31 -59q-174 117 -263 274.5t-89 358.5zM170 467q0 -127 34 -223.5t83 -180.5q-23 66 -40.5 158t-17.5 199q1 82 13 184 q27 186 71.5 293t124.5 246q-94 -104 -162.5 -229.5t-85 -235t-18.5 -158.5t-2 -53z" />
<glyph unicode=")" horiz-adv-x="593" d="M-25 -113q162 178 240 334t97.5 298.5t23.5 191.5t4 100q0 141 -37 255t-125 255l31 59q176 -119 264 -275.5t88 -359.5q0 -59 -38.5 -348.5t-532.5 -568.5zM231 145q57 57 120 178t78 231t15 179q0 115 -25.5 201t-60.5 127q12 -35 22.5 -102.5t10.5 -147.5 q0 -88 -19.5 -224t-57.5 -251t-83 -191z" />
<glyph unicode="*" horiz-adv-x="692" d="M174 848q0 63 80 78l182 30l-174 31q-29 4 -44 20.5t-15 41.5q0 20 20.5 49.5t59.5 29.5t59 -32l94 -140l-39 168q-2 8 -2 21q0 37 22.5 61.5t57.5 24.5q29 0 45.5 -16.5t16.5 -45.5q0 -20 -13 -45l-88 -168l135 138q35 37 70 36q35 0 46 -26.5t11 -40.5q0 -61 -80 -76 l-182 -31l174 -30q61 -10 62 -64q0 -20 -20.5 -50t-61.5 -30q-35 0 -60 35l-94 139l41 -170q8 -39 -16.5 -71.5t-63.5 -32.5q-27 0 -43 16.5t-16 42.5q0 20 12 45l86 170l-133 -139q-35 -35 -70 -35q-37 0 -53 35q-6 16 -6 31z" />
<glyph unicode="+" horiz-adv-x="747" d="M109 410l20 141h207l31 209h141l-31 -209h211l-18 -141h-211l-31 -209h-141l30 209h-208z" />
<glyph unicode="," horiz-adv-x="555" d="M20 -150q47 27 90.5 66t55.5 72q-41 14 -63.5 50t-16.5 81q8 55 53 96t103 41q57 0 91 -40t25 -97q-12 -86 -74.5 -162t-230.5 -162z" />
<glyph unicode="-" horiz-adv-x="679" d="M109 418l20 125h492l-21 -125h-491z" />
<glyph unicode="." horiz-adv-x="555" d="M86 119q8 55 53 96t103 41q57 0 91 -40t25 -97q-8 -53 -54 -94t-101 -41t-90 39t-27 96z" />
<glyph unicode="/" horiz-adv-x="964" d="M18 27l738 1181h358l-1036 -1243zM211 242l686 915h-115z" />
<glyph unicode="0" horiz-adv-x="976" d="M115 367q0 33 17.5 148.5t154.5 252.5t301 137q141 0 233 -112.5t92 -280.5q0 -35 -6 -76q-29 -193 -160 -330t-290 -137q-145 0 -243.5 113t-98.5 285zM166 369q0 -147 88 -248t211 -101q-98 10 -158.5 101.5t-60.5 232.5q0 39 6 82q25 172 119 289t209 129 q-139 0 -261 -122t-137.5 -226.5t-15.5 -136.5zM375 373q0 -109 48 -179.5t118 -70.5q82 0 156.5 91t85 167t11.5 91t1 26q0 109 -47.5 181.5t-116.5 72.5q-80 0 -156 -92.5t-88 -175.5t-12 -111z" />
<glyph unicode="1" horiz-adv-x="649" d="M147 690l15 107h82q70 0 131 46t78 113h73l-135 -956h-235l96 690h-105zM213 51h68l94 680q-37 -29 -72 -39z" />
<glyph unicode="2" horiz-adv-x="948" d="M59 0l9 63l260 193q90 68 174 166t98 184q8 66 -28.5 115t-108.5 49q-55 0 -78 -4t-51 -18q53 -33 53 -103q0 -12 -5 -45t-51 -74t-108 -41q-53 0 -88 35t-35 88q0 12 9.5 72.5t136.5 143.5t295 83q131 0 227 -65.5t96 -192.5q0 -14 -4 -43q-14 -100 -150.5 -210.5 t-310.5 -176.5h430l-30 -219h-740zM131 51h623l10 58h-553zM518 367q102 78 144.5 119.5t48.5 86.5t6 66q0 80 -55 122t-123 52q59 -33 86.5 -69.5t27.5 -100.5q0 -23 -5 -60.5t-40 -92t-90 -123.5z" />
<glyph unicode="3" horiz-adv-x="958" d="M10 -12l109 39q0 -109 50 -165.5t165 -56.5q80 0 155.5 56.5t90.5 161.5q12 78 -44.5 143t-150.5 65h-20l20 136q76 0 144.5 57t75.5 108.5t7 71.5q0 78 -47 127t-116 49q-29 0 -54 -8q25 -25 25 -74q0 -12 -5 -44.5t-52.5 -73.5t-106.5 -41q-55 0 -89 33.5t-34 86.5 q0 12 7 62.5t124 117t254 66.5q147 0 243.5 -80t96.5 -198q0 -25 -8 -78t-80 -130t-160 -104q86 -14 150.5 -87.5t64.5 -174.5q0 -29 -12 -110.5t-139 -184t-305 -102.5q-176 0 -267.5 92t-91.5 240zM416 -231q113 12 195.5 78.5t92 127t9.5 68.5v12q0 82 -65.5 135.5 t-141.5 65.5q51 -29 89 -81t38 -122q0 -20 -8.5 -75.5t-69.5 -120t-139 -88.5zM543 373q70 27 123 77t60 95t7 65q0 82 -58 135.5t-124 61.5q113 -57 113 -197q0 -25 -6.5 -64.5t-38 -87.5t-76.5 -85z" />
<glyph unicode="4" horiz-adv-x="976" d="M-16 0l10 68q215 176 330.5 359t207.5 439h310q-59 -158 -181 -315.5t-254.5 -278t-195.5 -147.5h260l25 168h235l-24 -168h129l-19 -125h-127l-49 -342h-235l49 342h-471zM250 252q2 0 86 91t181.5 222t150.5 250h-103q-49 -152 -137 -312.5t-178 -250.5zM465 -291h65 l76 533h-67z" />
<glyph unicode="5" horiz-adv-x="929" d="M14 -94q0 20 5.5 55t52.5 76t108 41q53 0 87 -34t34 -89v-18q-6 -43 -33.5 -77t-66.5 -50q59 -41 143 -41q94 0 165 58t79 111.5t8 73.5q0 98 -79 156.5t-204 58.5q-39 0 -78.5 -6t-84.5 -20l94 665h608l-35 -235h-500l-24 -166q231 0 375.5 -97.5t144.5 -277.5 q0 -29 -14.5 -124t-145.5 -206.5t-303 -111.5q-135 0 -235.5 74.5t-100.5 183.5zM268 276q37 4 56 5q125 0 224 -70t99 -186q0 -25 -6 -72t-43 -100.5t-90 -88.5q59 23 120.5 91.5t69 119t8.5 65.5t1 23q0 170 -132 232.5t-294 62.5zM324 682h450l10 68h-450z" />
<glyph unicode="6" horiz-adv-x="1034" d="M133 416v45t26.5 199.5t203 376t358.5 194.5q127 0 194.5 -57.5t67.5 -151.5q0 -14 -6 -56t-52 -83t-102 -41q-51 0 -84.5 33.5t-33.5 85.5v18q12 80 90 121q-10 6 -24.5 14t-45.5 8q-90 0 -180 -115.5t-139 -365.5q45 55 104 84t141 29q131 0 225.5 -88t94.5 -236 q0 -29 -17.5 -144.5t-157.5 -214t-298 -98.5q-174 0 -269.5 127t-95.5 316zM184 422q0 -129 42 -213t87 -117q-20 33 -36.5 103.5t-16.5 162.5q0 74 12 166q29 211 108 369t179 244q-113 -53 -223.5 -213t-129 -291t-20.5 -160t-2 -51zM354 303q0 -215 162 -215 q76 0 126 69.5t60.5 146.5t10.5 124q0 84 -28.5 138.5t-98.5 54.5q-59 0 -121 -31t-76 -64.5t-19 -54t-5 -41.5q-10 -78 -11 -127zM641 90q66 29 124 98.5t67.5 135t9.5 98.5q0 113 -47 162t-123 67q41 -20 66.5 -79.5t25.5 -147.5q0 -39 -9.5 -107.5t-44 -131t-69.5 -95.5z " />
<glyph unicode="7" horiz-adv-x="854" d="M109 463l57 403h772q-190 -299 -340.5 -648t-179.5 -560h-268q35 178 156.5 399.5t363.5 573.5h-434l-25 -168h-102zM209 -291h86q35 168 98.5 324.5t153.5 333.5q-86 -141 -188.5 -317.5t-149.5 -340.5zM242 682h460l46 68h-496z" />
<glyph unicode="8" horiz-adv-x="968" d="M94 260q0 25 10.5 93.5t90 139t159.5 117.5q-49 41 -97 100.5t-48 149.5q0 20 13.5 107.5t133 175.5t289.5 88q129 0 204 -76t75 -166v-20q-18 -133 -80 -198.5t-121 -106.5q55 -45 110.5 -112t55.5 -175q0 -25 -12.5 -113t-142.5 -189.5t-308 -101.5q-166 0 -249 88.5 t-83 198.5zM244 283q-10 -68 38 -136.5t146 -68.5q70 0 134.5 46t71.5 98t7 73q0 100 -65.5 151t-131.5 86q-84 -43 -136 -100t-64 -149zM264 874q0 -68 43 -130t125 -123l143 -103q51 -41 84 -95t33 -120q0 -20 -4 -51t-23.5 -75t-48.5 -62q57 23 97.5 71t48.5 111 q2 14 2 43q0 70 -34 126t-91 99l-152 107q-72 55 -115.5 112.5t-43.5 114.5v19q12 80 42.5 132t82.5 93q-63 -27 -120 -90.5t-69 -153.5v-25zM446 946q-12 -92 50.5 -144t132.5 -87q45 35 93 88t60 145v25q0 63 -41.5 105t-109.5 42q-63 0 -117.5 -48t-67.5 -126z" />
<glyph unicode="9" horiz-adv-x="1034" d="M96 -143q0 14 6.5 56t51.5 83t102 41t92 -40t27 -97q-16 -86 -92 -121q16 -12 30.5 -17.5t40.5 -5.5q88 0 178.5 116t139.5 364q-41 -51 -104.5 -82t-141.5 -31q-131 0 -224 87t-93 234q0 31 17 147t156.5 215t297.5 99q176 0 270 -128t94 -318q0 -51 -25.5 -237.5 t-201 -381t-359.5 -194.5q-129 0 -195.5 58t-66.5 153zM162 457q0 -115 61.5 -185.5t136.5 -87.5q-66 51 -95 111.5t-29 148.5q0 37 6 80q16 102 53 171t108 126q-88 -35 -154.5 -114.5t-75.5 -143t-10 -81t-1 -25.5zM365 453q0 -86 28.5 -140.5t98.5 -54.5q59 0 121.5 30.5 t77 64.5t19.5 54.5t5 38.5q8 68 9 89.5t1 33.5q0 219 -162 219q-74 0 -125 -69.5t-62 -145t-11 -120.5zM537 -199q98 72 178 218.5t97 267.5t19.5 152.5t2.5 54.5q0 104 -29 170.5t-80 109.5q27 -43 38 -82t11 -106q0 -61 -23.5 -234.5t-82 -320t-131.5 -230.5z" />
<glyph unicode=":" horiz-adv-x="555" d="M86 119q8 55 53 96t103 41q57 0 91 -40t25 -97q-8 -53 -54 -94t-101 -41t-90 39t-27 96zM156 623q8 57 54 97t103 40q49 0 82 -35t33 -84v-18q-8 -53 -54 -94.5t-102 -41.5q-55 0 -89.5 39.5t-26.5 96.5z" />
<glyph unicode=";" horiz-adv-x="555" d="M20 -150q47 27 90.5 66t55.5 72q-41 14 -63.5 50t-16.5 81q8 55 53 96t103 41q57 0 91 -40t25 -97q-12 -86 -74.5 -162t-230.5 -162zM156 623q8 57 54 97t103 40q49 0 82 -35t33 -84v-18q-8 -53 -54 -94.5t-102 -41.5q-55 0 -89.5 39.5t-26.5 96.5z" />
<glyph unicode="&#x3c;" horiz-adv-x="849" d="M211 1047v24q4 16 8 47t49 72t103 41q53 0 84.5 -34t31.5 -85v-18q-6 -45 -38.5 -82t-77.5 -49q2 -35 33.5 -73t72.5 -65l-49 -55q-121 74 -169 141.5t-48 135.5zM573 1047v24q4 16 8.5 47t49.5 72t102 41t91 -40t26 -97q-6 -45 -39 -82t-78 -49q2 -35 34 -73t73 -65 l-49 -55q-121 74 -169.5 141.5t-48.5 135.5z" />
<glyph unicode="=" horiz-adv-x="679" d="M88 268l21 142h491l-20 -142h-492zM129 551l21 141h491l-20 -141h-492z" />
<glyph unicode="&#x3e;" horiz-adv-x="849" d="M170 825q45 25 89 65t56 73q-94 29 -79 131q8 55 53 96t102 41q53 0 85 -34t32 -85v-18q-12 -86 -72.5 -162t-232.5 -162zM532 825q45 25 89.5 65t56.5 73q-94 29 -80 131q8 55 53 96t103 41q57 0 91 -40t25 -97q-12 -86 -74.5 -162t-230.5 -162z" />
<glyph unicode="?" horiz-adv-x="989" d="M143 899q37 139 172.5 235.5t313.5 96.5q166 0 270.5 -88t104.5 -221q0 -12 -12.5 -107.5t-162 -191t-303.5 -187.5q-4 -20 7.5 -33.5t35.5 -27.5l-39 -56q-63 0 -111 36t-48 102v20q16 111 188 224.5t178 151.5t6 54q0 76 -60 123t-132 47q-240 0 -309 -217zM332 111 q8 53 50 91t95 38q55 0 87 -38t24 -91t-49.5 -90t-96.5 -37q-53 0 -85.5 36.5t-24.5 90.5zM422 469q-4 -29 3 -42t17 -21q-2 14 -3 29.5t-1 21.5q8 63 212 189t212 184.5t8 74.5q0 88 -70.5 150.5t-158.5 62.5h-18q74 -23 124 -71t50 -132q0 -23 -6.5 -64.5t-181.5 -165.5 t-187 -216z" />
<glyph unicode="@" horiz-adv-x="1280" d="M133 274q0 35 13.5 133.5t104.5 207t200 108.5q106 0 167 -102l3 10q4 39 34.5 65.5t69.5 26.5t63.5 -26.5t18.5 -65.5l-72 -504q-2 -14 8.5 -28.5t22.5 -14.5q57 0 145 138t88 290q0 164 -114.5 259t-251.5 95q-100 0 -194.5 -40t-184.5 -117l-18 41q96 100 219 166.5 t258 66.5q262 0 376.5 -138t114.5 -294q0 -211 -187.5 -392.5t-342.5 -181.5q-41 0 -78 33t-45 78q-43 -53 -95.5 -83t-109.5 -30q-92 0 -152.5 85t-60.5 214zM184 276q0 -100 37 -168.5t103 -76.5q-27 18 -49.5 76.5t-22.5 140.5q0 147 32.5 243.5t121.5 176.5 q-68 -16 -145 -124t-77 -268zM338 279q0 -78 24.5 -129.5t63.5 -51.5q49 0 93.5 73t60.5 179q6 37 6 72q0 78 -24.5 128t-63.5 50q-47 0 -93.5 -74.5t-56.5 -143.5t-10 -103zM596 135q0 -51 27.5 -78.5t66.5 -27.5q23 0 33 4t14 6q-84 10 -84 96q0 23 2 35l70 502 q-53 0 -63 -62l-62 -440q-4 -25 -4 -35zM719 907q137 -25 234.5 -129.5t97.5 -249.5q0 -113 -35 -201.5t-90 -158.5q80 66 137 161t57 214q0 160 -114.5 262t-286.5 102z" />
<glyph unicode="A" d="M-74 0l17 121h71l537 1087h141l234 -1087h88l-17 -121h-401l16 121h66l-43 213h-367l-104 -213h94l-16 -121h-316zM328 455h282l-82 411zM569 946l164 -825h66l-183 921z" />
<glyph unicode="B" horiz-adv-x="964" d="M35 0l16 121h86l135 966h-84l15 121h375q156 0 255 -66.5t99 -205.5q0 -14 -2 -31.5t-7 -63.5t-64.5 -118t-156.5 -98q98 -18 153.5 -95t55.5 -174q0 -29 -12 -111.5t-144 -163.5t-304 -81h-416zM188 121h66l137 966h-67zM373 121h94q82 0 143.5 51t73.5 141q2 14 2 25.5 v15.5q0 82 -42 138.5t-116 56.5h-96zM449 670h53q80 0 133 54t62.5 121.5t9.5 82.5q0 159 -144 159h-2h-53zM563 88q84 23 151.5 73t76 107.5t8.5 77.5q0 82 -47.5 141.5t-96.5 69.5q84 -68 84 -201q0 -14 -13 -110t-163 -158zM641 662q68 29 116 81t54 99t6 69 q0 78 -49 134.5t-96 66.5q43 -27 64.5 -73t21.5 -107q0 -14 -2 -30.5t-6.5 -57.5t-32 -93.5t-76.5 -88.5z" />
<glyph unicode="C" horiz-adv-x="886" d="M102 498v46t22.5 168.5t192.5 334t396 184.5q131 0 211 -56.5t80 -158.5q0 -25 -6.5 -63t-57 -83t-113.5 -45q-57 0 -94 37t-37 92q0 16 3 39t27 56.5t58 54.5l-24 4q-137 0 -250 -150.5t-130.5 -284.5t-18.5 -157.5t-1 -38.5q0 -168 71 -263t208 -95q51 0 94 15.5 t62 23.5l39 -90q-49 -35 -138.5 -59.5t-156.5 -24.5q-207 0 -322 144t-115 370zM154 498q0 -197 95 -319t226 -140q-92 49 -167 156.5t-75 291.5q0 29 0.5 48.5t8.5 72.5q35 240 149.5 374t243.5 192q-154 -20 -297 -175t-163.5 -298.5t-20.5 -202.5z" />
<glyph unicode="D" horiz-adv-x="1071" d="M35 0l16 121h86l135 966h-84l15 121h434q203 0 309.5 -135t106.5 -348v-74q-6 -33 -25.5 -167t-174.5 -309t-386 -175h-432zM188 121h66l137 966h-67zM373 121h78q145 0 226 141t97.5 263t20.5 164t4 85q0 143 -48 228t-163 85h-80zM580 106q150 68 227.5 174.5t99 258 t21.5 217.5q0 137 -50 214t-159 132q61 -39 95 -115t34 -215q0 -72 -20.5 -226.5t-88 -271t-159.5 -168.5z" />
<glyph unicode="E" horiz-adv-x="964" d="M72 293q0 29 9 94.5t99 151.5t193 102q-76 27 -125 98.5t-49 151.5q0 16 12 92t147.5 162t296.5 86q141 0 236.5 -57.5t95.5 -161.5q0 -20 -5 -56t-56.5 -81.5t-114.5 -45.5q-55 0 -93 36t-38 91q0 16 3 39t25.5 57.5t53.5 51.5q-25 8 -60 8q-90 0 -159.5 -64.5 t-76.5 -112.5t-7 -65q0 -74 44 -126t99 -52h27l-19 -135h-20q-94 0 -168 -58.5t-82 -117.5t-8 -76q0 -78 58.5 -123t131.5 -45q238 0 312 217l96 -41q-35 -139 -170.5 -234t-313.5 -95q-168 0 -271 87t-103 222zM123 295q0 -115 91 -187.5t210 -72.5q-98 29 -161.5 96.5 t-63.5 165.5q0 25 2 37q14 104 63 160.5t129 103.5q-92 -14 -173 -85t-89 -132.5t-8 -85.5zM250 887q0 -74 51 -131.5t113 -71.5q-43 39 -63.5 79t-20.5 95l4 49q10 84 66.5 156t134.5 104q-94 -18 -181.5 -86t-101.5 -170q-2 -8 -2 -24z" />
<glyph unicode="F" horiz-adv-x="794" d="M35 0l16 121h86l135 966h-84l15 121h723l-37 -256h-121l20 135h-280l-53 -385h307l-19 -120h-307l-63 -461h84l-17 -121h-405zM188 121h66l137 966h-67z" />
<glyph unicode="G" horiz-adv-x="1036" d="M102 496v45t22.5 171.5t195 336t423.5 182.5q98 0 164 -24.5t111 -59.5l-60 -109q-45 29 -88 42.5t-116 13.5q-139 0 -248 -142.5t-126.5 -267.5t-17.5 -186q0 -168 67 -282t183 -114q45 0 74 25l51 354h-141l16 121h377l-71 -516q-92 -51 -180.5 -76.5t-202.5 -25.5 q-207 0 -320 144t-113 368zM154 500q0 -201 102 -324t219 -137q-104 45 -173 159.5t-69 286.5v74q7 35 9 49q31 221 141.5 366.5t249.5 196.5q-139 -16 -287.5 -166.5t-168 -285.5t-21.5 -164t-2 -55zM741 141q14 4 29.5 9.5t40.5 25.5l45 305h-68z" />
<glyph unicode="H" horiz-adv-x="1140" d="M35 0l16 121h86l135 966h-84l15 121h407l-16 -121h-86l-51 -374h344l53 374h-86l16 121h406l-16 -121h-84l-138 -966h86l-18 -121h-406l17 121h86l67 469h-346l-65 -469h84l-17 -121h-405zM188 121h66l137 966h-67zM768 121h68l135 966h-66z" />
<glyph unicode="I" horiz-adv-x="577" d="M43 0l16 121h86l138 966h-86l14 121h407l-16 -121h-84l-137 -966h86l-18 -121h-406zM197 121h65l137 966h-65z" />
<glyph unicode="J" horiz-adv-x="563" d="M-231 -174l100 59q45 -116 112 -116h1q123 0 147 174l164 1144h-86l14 121h408l-17 -121h-84l-151 -1062q-27 -186 -133.5 -280.5t-255.5 -94.5q-84 0 -141.5 49t-77.5 127zM57 -264q68 14 124.5 77.5t72.5 172.5l156 1101h-66l-160 -1128q-14 -96 -42 -150.5t-85 -72.5z " />
<glyph unicode="K" horiz-adv-x="1101" d="M35 0l16 121h86l135 966h-84l15 121h321l-82 -587l361 446q63 78 116.5 118t120.5 40q55 0 94.5 -37t39.5 -94q0 -12 -5.5 -47t-56.5 -80t-113 -45q-84 0 -112 63l-230 -293l230 -528q4 -10 16 -16.5t25 -6.5q45 0 57 49l8 62h80l-8 -62q-12 -92 -87 -156.5t-167 -64.5 q-68 0 -114 33t-62 78l-199 506l-82 -586h-319zM188 121h66l137 966h-67zM520 520l162 -418q14 -33 53 -58.5t84 -25.5q29 0 60 13q-41 0 -75 23.5t-52 74.5l-181 455z" />
<glyph unicode="L" horiz-adv-x="886" d="M35 0l16 121h86l135 966h-84l15 121h407l-16 -121h-86l-133 -954h313l25 166h121l-43 -299h-756zM188 121h66l137 966h-67z" />
<glyph unicode="M" horiz-adv-x="1536" d="M-6 0l18 121h88l293 966h-110l16 121h363l120 -796l340 796h377l-16 -121h-111v-966h98l-16 -121h-418l17 121h69v743l-352 -864h-201l-104 864l-227 -743h88l-17 -121h-315zM494 1087l127 -1056l57 135l-115 921h-69zM1174 121h71v966h-71v-966z" />
<glyph unicode="N" horiz-adv-x="1083" d="M35 0l16 121h86l135 966h-84l15 121h213l407 -762l90 641h-86l17 121h311l-14 -121h-86l-154 -1087h-123l-409 766l-90 -645h86l-19 -121h-311zM383 860l393 -741l19 141l-394 739z" />
<glyph unicode="O" horiz-adv-x="1058" d="M100 475q0 25 1 45.5t23.5 183t177.5 345t378 182.5q168 0 264 -148.5t96 -359.5v-70q-6 -31 -23.5 -155.5t-169 -319t-341.5 -194.5q-199 0 -302.5 137t-103.5 354zM152 475q0 -207 96 -324.5t244 -117.5q-115 31 -188 144.5t-73 295.5q1 57 11 135q31 225 152.5 380 t256.5 194q-147 0 -297.5 -144.5t-176 -326t-25.5 -236.5zM362 485q0 -154 55.5 -251t149.5 -97q113 0 207 137.5t110.5 248t18.5 144t2 62.5q0 154 -55 251t-150 97q-115 0 -208.5 -136t-120.5 -333q-8 -57 -9 -123z" />
<glyph unicode="P" horiz-adv-x="1024" d="M78 0l16 121h86l135 966h-135l15 121h501q164 0 271.5 -87t107.5 -220v-24q-4 -16 -14 -97.5t-146.5 -182.5t-316.5 -101h-131l-51 -375h84l-17 -121h-405zM231 121h66l137 966h-67zM485 616h129q86 0 143.5 69t69.5 167q4 37 4 55q0 80 -37.5 130t-111.5 50h-131z M733 602q68 20 134.5 81.5t74.5 121t8 84.5q0 86 -48 143.5t-97 69.5q39 -33 58.5 -83t19.5 -112q0 -14 -2 -30.5t-6.5 -59.5t-45.5 -111.5t-96 -103.5z" />
<glyph unicode="Q" horiz-adv-x="1058" d="M100 475q0 25 1 45.5t23.5 183t177.5 345t378 182.5q168 0 264 -148.5t96 -359.5v-70q-6 -31 -20 -127t-110.5 -259t-233.5 -238l74 -162q10 -23 41 -23q18 0 36.5 14.5t18.5 35.5l10 59h80l-8 -59q-14 -90 -89 -156t-165 -66q-66 0 -112 33t-64 78l-72 207 q-162 29 -244 160t-82 325zM154 475q0 -199 85 -311.5t228 -128.5l72 -215q14 -43 56 -71t91 -28q33 0 64 13q-43 0 -81 23.5t-57 72.5l-71 199q-145 14 -227.5 133t-82.5 311q0 57 20.5 209t142.5 306.5t257 193.5q-147 0 -297.5 -144.5t-173 -300t-24.5 -194.5t-2 -68z M362 485q0 -154 55.5 -251t149.5 -97q113 0 207 137.5t110.5 248t18.5 144t2 62.5q0 154 -55 251t-150 97q-115 0 -208.5 -136t-120.5 -333q-8 -57 -9 -123z" />
<glyph unicode="R" horiz-adv-x="1101" d="M78 0l16 121h86l135 966h-135l15 121h442q168 0 287.5 -71.5t119.5 -206.5q0 -29 -9 -96.5t-89 -143.5t-211 -108l183 -418q4 -10 16 -16.5t24 -6.5q45 0 58 49l8 62h80l-8 -62q-12 -92 -87 -156.5t-167 -64.5q-68 0 -114 33t-62 78l-189 483l-80 -563h-319zM231 121h66 l137 966h-67zM492 668h69q82 0 154.5 66.5t79 113.5t6.5 63q0 74 -53.5 125t-126.5 51h-70zM535 569l178 -452q37 -98 137 -99q29 0 63 13q-88 0 -129 98l-174 440h-75zM690 657q113 35 166 93.5t59.5 101.5t6.5 59q0 78 -62 130.5t-119 68.5q51 -33 81 -82t30 -110 q0 -20 -6 -62.5t-50 -102t-106 -96.5z" />
<glyph unicode="S" horiz-adv-x="901" d="M63 268q0 16 6.5 52t58.5 88.5t114 52.5q55 0 93 -38t38 -95v-19q-8 -49 -41 -87t-80 -56q47 -59 164 -60q70 0 128 42t63 77t5 43v13q0 96 -84 155l-235 191q-96 76 -125 128t-29 115l4 48q20 152 146.5 231.5t288.5 79.5q106 0 195 -58.5t89 -160.5q0 -20 -5 -53 t-52 -74t-103 -41q-51 0 -83.5 32.5t-32.5 86.5q0 12 4 47.5t61 72.5q-10 6 -33.5 16.5t-60.5 10.5q-66 0 -120 -37t-62 -100q-1 -8 -2 -17q1 -28 17 -55q20 -35 61 -70l272 -223q70 -57 103.5 -108.5t33.5 -128.5q0 -12 -14.5 -113.5t-143.5 -186.5t-307 -85 q-145 0 -238.5 89t-93.5 195zM190 879q0 -63 34 -110.5t98 -94.5l249 -199q94 -76 95 -178q0 -20 -9.5 -86t-138.5 -131q96 29 152.5 81t63.5 101t7 70q0 57 -30.5 103t-89.5 93l-256 205q-47 37 -83 89q-31 45 -31 89q0 7 1 15q10 70 49 127t121 102q-98 -33 -156.5 -89.5 t-72.5 -160.5q-2 -10 -3 -26z" />
<glyph unicode="T" horiz-adv-x="813" d="M47 952l37 256h897l-35 -256h-121l21 135h-211l-137 -966h86l-17 -121h-407l18 121h84l137 966h-209l-20 -135h-123zM313 121h68l137 966h-67z" />
<glyph unicode="U" d="M139 291q0 33 6 74l103 722h-86l16 121h406l-15 -121h-86l-102 -722q-6 -37 -6 -68q0 -188 176 -188q209 0 244 256l102 722h-86l14 121h322l-14 -121h-86l-103 -722q-27 -184 -144.5 -288t-301.5 -104q-158 0 -258.5 79t-100.5 239zM190 299q0 -137 85 -204.5t235 -67.5 q-109 14 -180.5 80.5t-71.5 197.5q0 14 2 32t2 28l103 722h-66l-102 -722q-6 -35 -7 -66z" />
<glyph unicode="V" d="M78 1087l14 121h414l-17 -121h-67l141 -735l359 735h-64l16 121h314l-14 -121h-93l-538 -1087h-148l-233 1087h-84zM217 1087l217 -1007l47 100l-198 907h-66z" />
<glyph unicode="W" horiz-adv-x="1468" d="M70 1087l16 121h422l-14 -121h-88l100 -729l340 850h112l121 -850l293 729h-69l14 121h315l-16 -121h-86l-469 -1087h-156l-110 707l-308 -707h-155l-156 1087h-106zM229 1087l150 -1040l47 117l-131 923h-66zM836 797l116 -752l45 111l-114 751z" />
<glyph unicode="X" d="M-66 115q0 12 5.5 47t56.5 80t115 45q63 0 104 -47l225 317l-147 479q-2 10 -14.5 16.5t-26.5 6.5q-47 0 -55 -49l-9 -62h-79l8 62q12 94 79.5 157.5t157.5 63.5q68 0 113 -32t59 -79l95 -309l182 256q37 55 104.5 106.5t132.5 51.5q55 0 94.5 -37t39.5 -94 q0 -12 -5.5 -47t-56.5 -80t-113 -45q-68 0 -104 47l-225 -318l145 -479q8 -23 41 -22q47 0 55 51l9 59h79l-8 -59q-12 -94 -78.5 -159t-158.5 -65q-68 0 -112 33t-60 78l-95 309l-180 -256q-47 -63 -108.5 -110t-130.5 -47q-55 0 -94.5 36.5t-39.5 94.5zM274 1108 q25 2 44.5 -15.5t25.5 -41.5l281 -922q33 -102 125 -102q23 0 47 6q-39 0 -62 23.5t-43 86.5l-276 914q-18 65 -78 65h-2q-31 0 -62 -14z" />
<glyph unicode="Y" horiz-adv-x="905" d="M-246 -174q0 14 6.5 46t51.5 72t100 40q53 0 86 -33t33 -84q0 -12 -2 -19q0 -18 -4.5 -30.5t-20.5 -34.5q86 0 173 46t153 136l-125 1122h-94l16 121h440l-16 -121h-92l78 -841q68 141 134 340.5t115 500.5h-81l16 121h297l-17 -121h-71q-109 -627 -368 -1028t-576 -401 q-96 0 -164 47t-68 121zM258 1087l121 -1077q12 12 25.5 29.5t33.5 48.5l-114 999h-66z" />
<glyph unicode="Z" horiz-adv-x="862" d="M-57 0l686 973h-379l-17 -109h-120l47 344h788l-686 -972h420l23 161h120l-55 -397h-827zM37 51h618l11 68h-580zM256 1024h504l47 68h-541z" />
<glyph unicode="[" horiz-adv-x="477" d="M37 -129l205 1466h348l-12 -82h-138l-182 -1302h137l-12 -82h-346zM98 -47h58l182 1302h-55z" />
<glyph unicode="\" horiz-adv-x="86" />
<glyph unicode="]" horiz-adv-x="477" d="M-27 -129l11 82h137l182 1302h-135l12 82h346l-207 -1466h-346zM172 -47h57l183 1302h-58z" />
<glyph unicode="^" horiz-adv-x="0" />
<glyph unicode="_" horiz-adv-x="956" d="M-63 -125l16 125h960l-16 -125h-960z" />
<glyph unicode="`" horiz-adv-x="897" d="M158 1327q4 33 28.5 55.5t59.5 22.5t63 -21l258 -176l-20 -49l-346 96q-16 4 -32.5 22.5t-10.5 49.5z" />
<glyph unicode="a" horiz-adv-x="1048" d="M82 344q0 45 16.5 166t131 258t249.5 137q63 0 118.5 -34.5t90.5 -94.5l2 10q6 49 45 84t88 35q47 -1 78 -35q26 -29 26 -68q0 -8 -1 -16l-88 -612q0 -49 45 -49q18 0 36.5 14.5t18.5 34.5l12 78h74l-12 -78q-10 -84 -79 -144.5t-155 -60.5q-68 0 -116 39t-58 103 q-55 -66 -121.5 -104t-134.5 -38q-117 0 -191.5 105.5t-74.5 269.5zM133 348q0 -141 59.5 -234.5t161.5 -93.5q20 0 31 3q-86 12 -131 91t-45 212v44t8 66q25 176 100.5 287t182.5 127q-10 2 -31 2q-117 0 -212 -124t-109.5 -231.5t-14.5 -148.5zM340 348 q0 -100 28.5 -162.5t80.5 -62.5q59 0 116.5 92t69.5 180t12 129q0 100 -29.5 164t-78.5 64q-61 0 -117.5 -93.5t-69 -181.5t-12.5 -129zM653 174q-1 -11 -1 -21q0 -52 35 -89q42 -44 104 -44q16 0 24 3q-96 10 -96 120q0 21 2 31l94 680q-27 0 -49.5 -19.5t-24.5 -50.5z" />
<glyph unicode="b" horiz-adv-x="978" d="M41 958l10 76q12 86 80 145.5t154 59.5q76 0 127 -49t51 -125q0 -20 -2 -31l-35 -256q53 59 114.5 93t125.5 34q117 0 192.5 -108.5t75.5 -270.5q0 -43 -16.5 -162.5t-131 -257t-251.5 -137.5q-133 0 -205 127l-2 -8q-6 -49 -45 -84t-90 -35q-47 0 -77 34q-25 28 -25 68 q0 8 1 17l133 946q1 6 1 12q0 37 -46 37q-47 0 -55 -49l-10 -76h-74zM143 88q-2 -29 14.5 -48.5t43.5 -19.5l143 1014q1 8 1 16q-1 34 -23 57q-28 28 -68 28q-25 0 -41 -9q31 0 49 -26q15 -21 15 -50q0 -8 -1 -16zM369 348q0 -100 28.5 -162.5t79.5 -62.5q59 0 116.5 93 t70 180t12.5 128q0 100 -30 164t-79 64q-59 0 -116.5 -92.5t-69.5 -181.5t-12 -130zM543 98q53 0 143 92.5t104.5 187.5t14.5 130q0 125 -59.5 195.5t-106.5 70.5q37 -27 62.5 -96.5t25.5 -157.5q0 -41 -12.5 -121t-61.5 -169t-110 -132z" />
<glyph unicode="c" horiz-adv-x="847" d="M82 362q0 37 15.5 150t149.5 249t312 136q139 0 214 -74.5t75 -185.5q0 -27 -5 -61.5t-51.5 -78.5t-103.5 -44q-51 0 -85 33.5t-34 84.5v19q8 51 48 89t92 46q-12 23 -44 40t-71 17q-102 0 -155.5 -96t-68 -204.5t-15.5 -136.5t-1 -42q0 -98 32 -154.5t112 -56.5 q63 0 116.5 47t81.5 125l92 -26q-45 -121 -136 -191t-222 -70q-160 0 -254 110t-94 275zM133 367q0 -131 66.5 -220.5t167.5 -109.5q-63 45 -105.5 113.5t-42.5 189.5q0 43 6 96q25 174 95.5 266.5t158.5 133.5q-121 -25 -219 -134.5t-112.5 -206t-14.5 -128.5z" />
<glyph unicode="d" horiz-adv-x="1048" d="M82 344q0 45 16.5 166t131 258t249.5 137q63 0 118.5 -34.5t90.5 -94.5l60 432h235l-145 -1034q0 -49 45 -49q18 0 36.5 14.5t18.5 34.5l12 78h74l-12 -78q-10 -84 -79 -144.5t-155 -60.5q-68 0 -116 39t-58 103q-55 -66 -121.5 -104t-134.5 -38q-117 0 -191.5 105.5 t-74.5 269.5zM133 348q0 -141 59.5 -234.5t161.5 -93.5q20 0 31 3q-86 12 -131 91t-45 212v44t8 66q25 176 100.5 287t182.5 127q-10 2 -31 2q-117 0 -212 -124t-109.5 -231.5t-14.5 -148.5zM340 348q0 -100 28.5 -162.5t80.5 -62.5q59 0 116.5 92t75.5 221q6 47 6 88 q0 100 -29.5 164t-78.5 64q-61 0 -117.5 -93.5t-69 -181.5t-12.5 -129zM653 174q-1 -11 -1 -21q0 -52 35 -89q42 -44 104 -44q16 0 24 3q-96 10 -96 120q0 21 2 31l137 983h-65z" />
<glyph unicode="e" horiz-adv-x="870" d="M82 362q0 37 15.5 151t153.5 253t327 139q141 0 208.5 -64.5t67.5 -150.5q0 -20 -8 -80.5t-140.5 -137.5t-347.5 -77q-8 -55 -8 -110q0 -104 40 -148.5t108 -44.5q72 0 129 61.5t75 131.5l97 -21q-31 -115 -123 -201t-246 -86q-160 0 -254 110t-94 275zM133 367 q0 -129 66.5 -219.5t167.5 -112.5q-61 43 -104.5 113.5t-43.5 191.5q0 43 6 96q25 172 97.5 270.5t158.5 139.5q-121 -25 -220 -138.5t-113.5 -211t-14.5 -129.5zM371 487q113 0 177.5 66.5t74.5 136.5q2 10 2 31q0 76 -56 76q-76 0 -130 -99.5t-68 -210.5zM518 481 q96 27 153.5 74t63.5 87t6 56q0 61 -35.5 94t-72.5 37q43 -27 43 -98l-4 -49q-8 -66 -57.5 -122t-96.5 -79z" />
<glyph unicode="f" horiz-adv-x="722" d="M88 745l16 121h119l49 342h236l-49 -342h299l-17 -121h-231q59 -35 107.5 -144t48.5 -249q0 -43 -20.5 -192.5t-145.5 -325.5t-246 -176q-82 0 -118 49t-36 172q0 104 29 299l78 567h-119zM154 -106q0 -106 25.5 -145.5t82.5 -39.5q8 0 17.5 2t17.5 6q-41 4 -60.5 37 t-19.5 123q0 100 27 295l80 573h-66l-80 -569q-24 -177 -24 -274v-8zM274 866h68l41 291h-68zM336 -100q0 -63 16 -64q43 0 99.5 128t71 233.5t14.5 148.5q0 106 -33 189t-76 114l-66 -479q-26 -174 -26 -263v-7z" />
<glyph unicode="g" horiz-adv-x="819" d="M-29 -135l109 57q20 -59 65 -97t123 -38q88 0 157 50t79 122q2 13 2 26q0 58 -39 98q-47 48 -133 48q-37 0 -80 -16.5t-51 -16.5q-49 0 -79 34q-24 27 -24 63q0 10 2 20q4 35 26 63.5t54 43.5q-106 74 -106 202q0 25 9 91.5t121.5 154.5t250.5 88h245q49 0 58 49l8 70h74 l-19 -141q-8 -47 -29.5 -81t-56.5 -63q18 -47 19 -98q0 -20 -6.5 -62.5t-46 -99.5t-111.5 -102q68 -39 105.5 -101.5t37.5 -144.5v-25q-4 -16 -15 -98t-136 -192.5t-281 -110.5q-141 0 -230 66.5t-102 140.5zM127 528q0 -74 43 -125t100 -73q-84 68 -84 186q0 12 9.5 75.5 t65.5 123t114 84.5q-80 -14 -157 -80t-89 -158q-2 -12 -2 -33zM289 172q14 4 32.5 7t26.5 3q90 0 149.5 -57t59.5 -135v-19q-10 -70 -44 -112.5t-79 -71.5q63 25 115.5 76t59.5 107.5t7 70.5q0 88 -53.5 135t-116.5 47q-47 0 -83.5 -14t-73.5 -37zM301 530q0 -68 40 -111.5 t103 -43.5q70 0 126.5 54t62.5 98t6 65q0 68 -40 112t-101 44q-72 0 -128.5 -53.5t-66.5 -133.5q-2 -10 -2 -31z" />
<glyph unicode="h" horiz-adv-x="1026" d="M70 0l170 1208h235l-69 -508l26 37q57 76 115.5 122t142.5 46t141.5 -57t57.5 -141q0 -20 -2 -31l-72 -502q0 -49 45 -49q49 0 58 49l10 78h73l-12 -78q-10 -84 -78.5 -144.5t-154.5 -60.5q-78 0 -128 50.5t-50 130.5q0 16 2 24l71 490q4 31 -13 51t-48 20 q-29 0 -62.5 -28.5t-87.5 -98.5l-59 -80l-74 -528h-237zM129 51h66l155 1106h-67zM616 782q39 -4 66 -36q21 -26 21 -63q0 -9 -1 -19l-71 -490q-1 -11 -1 -21q0 -52 35 -89q42 -44 103 -44q16 0 25 3q-96 10 -97 120q0 20 2 31l70 490q2 8 2 24q0 51 -30.5 75.5t-77.5 24.5 q-21 0 -46 -6z" />
<glyph unicode="i" horiz-adv-x="538" d="M92 143q0 20 2 31l96 692h236l-96 -692q-1 -6 -1 -12q0 -37 46 -37q47 0 55 49l12 78h74l-12 -78q-12 -86 -80 -145.5t-154 -59.5q-76 0 -127 49.5t-51 124.5zM145 174q-1 -11 -1 -22q0 -53 34 -89q41 -43 103 -43q16 0 24 3q-94 10 -94 127v24l92 641h-67zM221 1092 q8 49 47 83.5t88 34.5q43 0 72 -28.5t29 -71.5v-18q-6 -47 -45 -82t-88 -35q-47 1 -78 35q-26 29 -26 67q0 7 1 15z" />
<glyph unicode="j" horiz-adv-x="495" d="M-242 -160l86 49q25 -120 104 -120h1q123 0 149 174l129 923h236l-119 -848q-25 -180 -126 -270t-247 -90q-88 0 -145 51t-68 131zM33 -262q78 25 125 77t63 165l117 835h-66l-122 -862q-10 -84 -39 -134t-78 -81zM262 1092q6 49 45 83.5t88 34.5q47 0 78 -34 q26 -29 26 -68q0 -8 -1 -16q-8 -47 -47.5 -82t-88.5 -35q-47 0 -78 35q-24 27 -24 63q0 9 2 19z" />
<glyph unicode="k" horiz-adv-x="962" d="M70 0l170 1208h235l-104 -749l293 172q-47 37 -48 104q0 12 6.5 46t56.5 79t112 45q57 0 95 -38t38 -95q0 -12 -4.5 -35.5t-27 -56.5t-52.5 -51l-254 -156l170 -326q12 -23 41 -22q49 0 57 49l12 78h72l-10 -78q-12 -84 -81 -144.5t-155 -60.5q-74 0 -117 41t-69 99 l-141 307l-60 -416h-235zM129 51h66l155 1106h-67zM436 383l127 -266q18 -45 53 -72t84 -27q27 0 58 13q-41 0 -67.5 21.5t-53.5 76.5l-143 287z" />
<glyph unicode="l" horiz-adv-x="538" d="M92 143q0 20 2 31l146 1034h235l-145 -1034q-1 -6 -1 -12q0 -37 46 -37q47 0 55 49l12 78h74l-12 -78q-12 -86 -80 -145.5t-154 -59.5q-76 0 -127 49.5t-51 124.5zM145 174q-1 -11 -1 -22q0 -53 34 -89q41 -43 103 -43q16 1 24 3q-94 10 -94 127v24l139 983h-67z" />
<glyph unicode="m" horiz-adv-x="1488" d="M57 600l13 76q12 86 79.5 145.5t153.5 59.5q68 0 116 -40t60 -106q55 72 120.5 121t141.5 49t126.5 -46t50.5 -116q55 66 120.5 114t137.5 48q78 0 129 -51t51 -129q0 -16 -2 -25l-76 -526q0 -49 45 -49q18 0 36.5 14.5t18.5 34.5l13 78h73l-12 -78q-10 -84 -78.5 -144.5 t-154.5 -60.5q-78 0 -128.5 50.5t-50.5 130.5q0 16 2 24l76 526q2 20 -10 35t-35 15q-27 0 -69.5 -45.5t-102.5 -126.5l-82 -578h-235l98 700q1 7 1 12q0 37 -44 38q-27 0 -70 -45.5t-102 -126.5l-82 -578h-235l94 676q1 7 1 12q0 37 -44 37q-49 0 -58 -49l-12 -76h-74z M207 51h65l90 625q2 11 2 20q0 34 -22 54q-28 26 -70 26q-25 0 -41 -8q29 0 49 -28q16 -21 16 -48q0 -8 -1 -16zM641 51h68l86 613q2 12 2 32q0 100 -88 101q-23 0 -45 -9q69 0 69 -79q0 -12 -4 -45zM1094 174q-1 -11 -1 -21q1 -52 35 -89q42 -44 103 -44q16 0 24 3 q-96 10 -96 120q0 20 2 31l70 490q2 10 2 26q0 49 -26.5 78t-67.5 29q-19 0 -37 -6q65 0 65 -86q0 -13 -4 -41z" />
<glyph unicode="n" horiz-adv-x="1101" d="M57 600l13 76q12 86 79.5 145.5t153.5 59.5q80 0 129 -51.5t49 -129.5l27 37q68 96 128 132t130 36q86 0 143.5 -57t57.5 -141q0 -20 -2 -31l-72 -502q-1 -6 -1 -12q0 -37 46 -37q47 0 55 49l13 78h73l-12 -78q-12 -86 -79.5 -145.5t-153.5 -59.5q-76 0 -127.5 49.5 t-51.5 124.5q0 20 2 31l70 490q4 31 -12.5 51t-48.5 20q-31 0 -62 -26.5t-86 -100.5l-61 -80l-72 -528h-235l94 676q1 7 1 12q0 37 -44 37q-49 0 -58 -49l-12 -76h-74zM207 51h65l90 625q2 11 2 20q0 34 -22 54q-28 26 -70 26q-25 0 -41 -8q29 0 49 -28q16 -21 16 -48 q0 -8 -1 -16zM700 776q27 6 52.5 -21.5t25.5 -72.5v-18l-69 -490q-1 -11 -1 -22q0 -53 34 -89q40 -43 102 -43q16 0 24 3q-94 10 -94 127v24l72 490q2 12 2 22q0 42 -26 66q-32 30 -81 30q-23 0 -41 -6z" />
<glyph unicode="o" horiz-adv-x="907" d="M82 356q0 39 16.5 157t147.5 255t291 137q139 0 223 -107.5t84 -275.5q0 -43 -16.5 -161.5t-140 -255t-281.5 -136.5q-141 0 -232.5 109.5t-91.5 277.5zM133 360q0 -150 81 -245t216 -95q-96 10 -156.5 101.5t-60.5 230.5q0 41 6 84q25 174 118 290t210 128 q-152 0 -268.5 -120t-131 -229.5t-14.5 -144.5zM340 365q0 -104 42 -173t107 -69q80 0 148 90t80 175t12 118q0 106 -40.5 176t-108.5 70q-80 0 -147.5 -91.5t-80 -176.5t-12.5 -119z" />
<glyph unicode="p" horiz-adv-x="1048" d="M57 600l13 76q12 86 79.5 145.5t153.5 59.5q66 0 108 -33t64 -92q122 149 258 149h2q119 0 195 -108.5t76 -270.5q0 -43 -17.5 -162.5t-133.5 -257t-251 -137.5q-129 0 -207 129l-61 -432h-236l144 1010q1 7 1 12q0 37 -44 37q-49 0 -58 -49l-12 -76h-74zM160 -283h67 l135 959q2 11 2 20q0 33 -22 54q-27 26 -70 26q-25 0 -41 -8q29 0 49 -28q16 -21 16 -48q0 -8 -1 -16zM440 344q0 -100 29 -160.5t80 -60.5q59 0 115.5 91t68.5 180t12 132q0 100 -29.5 163t-78.5 63q-61 0 -118 -92.5t-73 -223.5q-6 -49 -6 -92zM612 98q55 0 145.5 92.5 t103.5 187.5t13 130q0 125 -59 195.5t-106 70.5q37 -27 62.5 -96.5t25.5 -157.5q0 -41 -12.5 -121t-61.5 -169t-111 -132z" />
<glyph unicode="q" horiz-adv-x="972" d="M82 344q0 45 16.5 166t131 258t249.5 137q63 0 118.5 -34.5t90.5 -94.5l2 10q6 49 45 84t88 35q47 0 78 -35q26 -28 26 -68q0 -8 -1 -16l-160 -1120h-236l62 432q-53 -61 -114.5 -95t-129.5 -34q-117 0 -191.5 105.5t-74.5 269.5zM133 346q0 -143 60.5 -234.5 t162.5 -91.5q-66 47 -105.5 124t-39.5 194q0 45 15.5 156.5t82 216t164.5 143.5q-117 0 -214 -121t-120 -297q-6 -47 -6 -90zM340 348q0 -100 28.5 -162.5t80.5 -62.5q59 0 116.5 92t75.5 221q6 47 6 88q0 100 -29.5 164t-78.5 64q-61 0 -117.5 -93.5t-69 -181.5t-12.5 -129 zM590 -283h67l158 1137q-27 0 -49.5 -19.5t-24.5 -50.5z" />
<glyph unicode="r" horiz-adv-x="784" d="M57 600l13 76q12 86 79.5 145.5t153.5 59.5q80 0 129 -51.5t49 -129.5l27 37q59 82 113.5 125t111.5 43q63 0 102 -44q32 -37 32 -86q0 -10 -1 -21q-10 -63 -60 -108.5t-114 -45.5q-90 0 -121 76q-12 -12 -25.5 -30.5t-27.5 -37.5l-61 -80l-72 -528h-235l94 676q1 7 1 12 q0 37 -44 37q-49 0 -58 -49l-12 -76h-74zM207 51h65l90 625q2 11 2 20q0 34 -22 54q-28 26 -70 26q-25 0 -41 -8q29 0 49 -28q16 -21 16 -48q0 -8 -1 -16z" />
<glyph unicode="s" horiz-adv-x="768" d="M23 244l245 344q-12 16 -25.5 42.5t-13.5 67.5q0 18 6.5 61.5t69 104t150.5 60.5q57 0 94 -39t37 -94v-19q-6 -45 -26.5 -69.5t-41.5 -43.5l129 -213q29 -51 45.5 -99t16.5 -93q0 -14 -10.5 -88t-112 -139.5t-234.5 -65.5q-111 0 -202 74t-127 209zM158 242 q25 -63 73 -107.5t111 -44.5q43 0 75 22.5t38 63.5q1 10 1 20q0 48 -24 95l-104 184zM281 709q0 -33 22 -74l174 -313q31 -53 31 -121v-19q-8 -43 -26.5 -72.5t-57.5 -43.5q63 6 105.5 33.5t50.5 93.5q2 10 2 30q0 41 -13.5 82t-29.5 64l-183 307q-12 23 -20 41t-8 49 q0 33 20 72q-59 -49 -63 -81t-4 -48z" />
<glyph unicode="t" horiz-adv-x="622" d="M31 745l16 121h182l29 205h236l-29 -205h235l-18 -121h-236l-79 -571q0 -49 45 -49q18 0 36.5 14.5t18.5 34.5l12 78h74l-12 -78q-10 -84 -79 -144.5t-155 -60.5q-78 0 -128 50.5t-50 130.5q0 16 2 24l80 571h-180zM182 174q-1 -11 -1 -21q0 -52 35 -89q42 -44 103 -44 q16 0 25 3q-96 10 -96 120q0 21 2 31l80 571h-68zM281 866h65l23 154h-66z" />
<glyph unicode="u" horiz-adv-x="1099" d="M57 600l13 76q12 86 79.5 145.5t153.5 59.5q76 0 127 -49.5t51 -124.5q0 -20 -2 -31l-65 -465q-4 -31 13 -51.5t48 -20.5q29 0 63.5 29t84.5 98l55 76l74 524h235l-98 -692q0 -49 45 -49q18 0 36.5 14.5t18.5 34.5l12 78h74l-12 -78q-10 -84 -79 -144.5t-155 -60.5 q-76 0 -127 49.5t-51 126.5v19l-20 -27q-51 -74 -112.5 -121t-145.5 -47q-86 0 -142.5 56.5t-56.5 142.5q0 20 2 31l68 477q1 7 1 12q0 37 -44 37q-49 0 -58 -49l-12 -76h-74zM225 174q0 -68 49.5 -111t110.5 -43q21 1 29 3q-59 10 -91 41.5t-32 95.5q0 25 2 39l69 477 q2 11 2 20q0 34 -22 54q-28 26 -70 26q-25 0 -41 -8q29 0 49 -28q16 -21 16 -48q0 -8 -1 -16l-68 -477q-2 -8 -2 -25zM705 174q-1 -11 -1 -21q0 -52 34 -89q42 -44 104 -44q16 0 24 3q-96 10 -96 120q0 20 2 31l90 641h-67z" />
<glyph unicode="v" horiz-adv-x="878" d="M57 600l13 76q12 86 79.5 145.5t153.5 59.5q76 0 127 -49.5t51 -124.5q0 -20 -2 -31l-59 -424q-6 -37 7 -62.5t50 -25.5q98 0 183 141t108 299l-37 -4q-61 0 -100 45q-32 37 -32 88q0 10 1 21q10 61 60.5 106t113.5 45q59 0 99 -42t40 -126v-24q-4 -18 -24.5 -168 t-176 -363t-339.5 -213q-100 0 -149.5 62.5t-49.5 134.5q0 16 2 24l68 486q1 7 1 12q0 37 -44 37q-49 0 -58 -49l-12 -76h-74zM225 174q0 -70 47 -112t111 -42q21 1 31 3q-59 10 -91 41.5t-32 95.5q0 25 2 39l69 477q2 11 2 20q0 34 -22 54q-28 26 -70 26q-25 0 -41 -8 q29 0 49 -28q16 -21 16 -48q0 -8 -1 -16l-68 -477q-2 -8 -2 -25z" />
<glyph unicode="w" horiz-adv-x="1339" d="M57 600l13 76q12 86 79.5 145.5t153.5 59.5q76 0 127 -49.5t51 -124.5q0 -20 -2 -31l-59 -424q-4 -31 10 -59.5t47 -28.5q43 0 73 25.5t66 84.5l82 592h236l-86 -614q-6 -37 7 -62.5t50 -25.5q94 0 163 136t95 304l-39 -4q-57 0 -94 37t-37 92q0 16 6.5 51t56.5 80 t111 45t101.5 -42t40.5 -126v-24q-4 -18 -24.5 -171t-161 -363t-322.5 -210q-80 0 -126 41t-65 103q-135 -144 -237 -144q-100 0 -149.5 62.5t-49.5 134.5q0 16 2 24l68 486q1 7 1 12q0 37 -44 37q-49 0 -58 -49l-12 -76h-74zM225 172q0 -68 46 -110t106 -42q12 1 37 5 q-59 8 -91 38.5t-32 96.5q0 25 2 39l69 477q2 11 2 20q0 34 -22 54q-28 26 -70 26q-25 0 -41 -8q29 0 49 -28q16 -21 16 -48q0 -8 -1 -16l-68 -477q-2 -10 -2 -27zM653 172q0 -68 46 -110t106 -42q12 1 37 5q-57 8 -90 38.5t-33 94.5q0 12 4 41l86 616h-66l-88 -616 q-2 -10 -2 -27z" />
<glyph unicode="x" horiz-adv-x="942" d="M12 113q8 57 54.5 97t103.5 40q51 0 86 -39l106 156l-102 352q-4 10 -16.5 16t-24.5 6q-49 0 -57 -49l-10 -78h-74l10 78q12 84 81 144.5t155 60.5q74 0 126 -49t60 -92l39 -127l139 200q47 68 127 68q51 0 85 -34t34 -85v-18q-8 -55 -55.5 -96t-102.5 -41q-53 0 -88 39 l-104 -156l102 -350q4 -10 16.5 -16.5t24.5 -6.5q49 0 57 49l11 78h71l-10 -78q-10 -84 -78.5 -144.5t-154.5 -60.5q-76 0 -127.5 47.5t-59.5 94.5l-39 129l-139 -205q-18 -29 -55 -48.5t-74 -19.5q-57 0 -91 40q-28 32 -28 77q0 10 2 21zM244 784q27 2 44 -15t25 -44 l174 -596q12 -45 49 -73.5t85 -28.5q18 0 41 6q-41 0 -64 22t-41 88l-172 590q-18 66 -82 66q-31 0 -59 -15z" />
<glyph unicode="y" horiz-adv-x="894" d="M-49 -201q0 16 5 48t50 73t103 41q57 0 91 -40q27 -32 27 -76q0 -10 -2 -21l-20 -57q76 10 122 52t130 142l-215 741q-4 10 -16.5 16.5t-24.5 6.5q-49 0 -58 -49l-12 -76h-74l13 76q12 86 79.5 145.5t153.5 59.5q76 0 125 -45t64 -95l129 -481q47 123 85.5 278.5 t63.5 327.5h131q-74 -528 -281.5 -868t-482.5 -340q-82 0 -134 38t-52 103zM223 768q29 4 46.5 -13.5t23.5 -43.5l205 -707q12 18 27.5 43t21.5 51l-182 619q-18 65 -78 65h-2q-31 0 -62 -14z" />
<glyph unicode="z" horiz-adv-x="743" d="M-57 0l512 631h-174q-76 0 -127.5 49t-51.5 125q0 20 2 31l15 108h74l-5 -26q-2 -20 10.5 -36t32.5 -16h549l-510 -630h324q49 0 57 49l4 28h74l-16 -108q-10 -84 -79 -144.5t-155 -60.5h-536zM47 51h440q68 0 117 43t58 111q-18 -49 -55 -67.5t-109 -18.5h-398zM154 811 q0 -55 36.5 -92t96.5 -37h282l56 68h-328q-74 0 -107.5 18t-33.5 68q-2 -8 -2 -25z" />
<glyph unicode="{" horiz-adv-x="665" d="M119 569l10 70q203 0 225 135q0 16 -2 62.5t-2 56.5v45q4 18 15.5 94t103.5 180.5t293 171.5l14 -47q-104 -57 -143 -128.5t-50.5 -145.5t-11.5 -102v-68q0 -29 -1 -57.5t-19.5 -81t-81.5 -90t-125 -60.5q55 -23 110.5 -60.5t55.5 -115.5q4 -39 -12.5 -96.5t-34.5 -124.5 q-10 -72 -10 -117q0 -74 25.5 -125t90.5 -94l-26 -47q-158 59 -226.5 145t-68.5 205q0 35 5 66.5t28.5 109.5t23.5 86q8 66 -40 99.5t-146 33.5zM301 180q0 -78 30.5 -136t84.5 -93q-35 35 -50.5 80t-15.5 106q0 41 6 88q2 10 24.5 90t22.5 105q0 29 -12 53.5t-45 48.5 q14 -35 14 -67q0 -35 -26.5 -118t-28.5 -98.5t-3 -33t-1 -25.5zM369 686q59 37 77.5 73t18.5 87q0 12 -2 46t-2 54q0 25 7 76t39 120.5t93 114.5q-74 -41 -127 -115.5t-65 -170.5q-2 -20 -3.5 -35.5t-1.5 -24.5q0 -18 2.5 -53t2.5 -49q0 -31 -4.5 -56.5t-34.5 -66.5z" />
<glyph unicode="|" horiz-adv-x="0" />
<glyph unicode="}" horiz-adv-x="665" d="M-27 -129q104 57 144.5 131t50.5 144.5t10 86v23.5v41q0 33 1 65.5t19.5 89t83 93.5t126.5 59q-33 10 -100.5 46t-67.5 130q0 35 14 93.5t33 127.5q10 76 10 121q0 72 -25.5 122t-91.5 93l29 47q156 -57 224.5 -147t68.5 -205q0 -33 -5 -65.5t-28 -106.5t-23 -86 q-10 -66 41.5 -100.5t145.5 -34.5l-10 -70q-98 0 -158 -33.5t-68 -99.5v-30v-101q-2 -25 -2 -37v-22q-23 -147 -114 -251t-291 -171zM162 -16q51 47 81.5 105t39 119.5t8.5 121t5 88t19.5 58.5t44.5 59q-49 -20 -86 -56.5t-43 -85.5q-4 -29 -4 -71v-40t2 -38q0 -20 -8 -72.5 t-20.5 -99.5t-38.5 -88zM293 815q-8 -49 17.5 -84t70.5 -57q-18 25 -25.5 49.5t-7.5 52.5v19q4 35 21.5 98t22.5 98t5 51q0 53 -16 99.5t-45 83.5q14 -41 14 -97q0 -51 -7 -97t-26.5 -111.5t-23.5 -104.5z" />
<glyph unicode="~" horiz-adv-x="0" />
<glyph unicode="&#xa1;" horiz-adv-x="555" d="M70 -158q0 20 6 45l217 734h82l14 -734q0 -74 -56 -128t-126 -54q-57 0 -97 40t-40 97zM121 -152q0 -39 26.5 -65.5t65.5 -26.5l111 793l-199 -670q-4 -20 -4 -31zM236 807v18q8 53 49 90t96 37q53 0 86 -36.5t25 -90.5q-8 -55 -49.5 -92t-98.5 -37q-47 0 -77.5 31 t-30.5 80z" />
<glyph unicode="&#xa2;" horiz-adv-x="886" d="M150 543q0 47 16 165.5t133 261t281 171.5l34 237h117l-35 -235q86 -10 138.5 -58.5t52.5 -121.5q0 -18 -5 -50t-48 -70t-99 -38q-51 0 -81.5 30.5t-30.5 79.5v19q6 31 21 57.5t32 38.5q-106 0 -190.5 -116.5t-96.5 -207t-14 -122t-2 -54.5q0 -129 54 -201.5t159 -72.5 q35 0 68.5 10t60.5 23l39 -84q-41 -27 -93.5 -45.5t-105.5 -26.5l-31 -219h-116l30 221q-137 25 -212.5 136.5t-75.5 271.5zM201 551q0 -141 66.5 -237.5t160.5 -118.5q-76 51 -117 123.5t-41 191.5q1 51 11 129q25 180 89 273.5t183 168.5q-119 -37 -220.5 -153.5 t-116.5 -226t-15 -150.5z" />
<glyph unicode="&#xa3;" horiz-adv-x="894" d="M43 0l16 121h86l64 446h-84l16 121h84l13 84q27 193 141.5 326t288.5 133q131 0 202.5 -69.5t81.5 -190.5l-98 -27q-6 70 -55 113t-115 43q-100 0 -144 -86t-67 -242l-12 -84h172l-17 -121h-172l-61 -434h313l25 166h121l-43 -299h-756zM197 121h65l64 446h-66zM276 688 h68l10 84q23 164 77 262.5t138 130.5q-94 -23 -175.5 -126t-104.5 -267z" />
<glyph unicode="&#xa4;" horiz-adv-x="948" d="M33 0l8 63l336 375q127 145 192.5 251t72.5 154t7 56v12q0 78 -48 130.5t-118 52.5q-63 0 -104 -23q61 -37 51 -121q-8 -59 -54 -100t-106 -41q-53 0 -88 35t-35 88v18q18 119 136 200t303 81q137 0 227 -74t90 -215q0 -14 -2 -31.5t-2 -27.5q-16 -113 -95 -199 t-302 -289l-187 -159h516l-32 -236h-766zM96 51h658l10 68h-610zM557 584q78 57 141.5 138t70.5 127t7 71q0 80 -49.5 127t-110.5 55q31 -25 57.5 -76t26.5 -113q0 -20 -6 -59t-53 -131t-84 -139z" />
<glyph unicode="&#xa5;" horiz-adv-x="905" d="M-227 -152q8 53 55 94.5t102 41.5q57 0 91 -40t26 -96q0 -16 -7 -33.5t-20 -31.5q86 0 173.5 46t152.5 136l-14 133h-365l17 125h333l-8 90h-311l18 123h277l-72 651h-92l14 121h441l-15 -121h-92l76 -841q68 139 135.5 340.5t116.5 500.5h-82l14 121h297l-14 -121h-72 q-31 -178 -76 -339.5t-102 -311.5h215l-16 -123h-252l-45 -90h282l-16 -125h-336q-127 -211 -280.5 -325.5t-317.5 -114.5q-102 0 -166.5 48t-64.5 124v18zM274 1087l121 -1077q12 12 27.5 30.5t34.5 47.5l-115 999h-68z" />
<glyph unicode="&#xa6;" horiz-adv-x="552" d="M174 0l84 598h127l-82 -598h-129zM283 768l82 598h129l-84 -598h-127z" />
<glyph unicode="&#xa7;" horiz-adv-x="1034" d="M133 416v45t26.5 199.5t203 376t358.5 194.5q127 0 194.5 -57.5t67.5 -151.5q0 -14 -6 -56t-52 -83t-102 -41q-51 0 -84.5 33.5t-33.5 85.5v18q12 80 90 121q-10 6 -24.5 14t-45.5 8q-90 0 -180 -115.5t-139 -365.5q45 55 104 84t141 29q131 0 225.5 -88t94.5 -236 q0 -29 -17.5 -144.5t-157.5 -214t-298 -98.5q-174 0 -269.5 127t-95.5 316zM184 422q0 -129 42 -213t87 -117q-20 33 -36.5 103.5t-16.5 162.5q0 74 12 166q29 211 108 369t179 244q-113 -53 -223.5 -213t-129 -291t-20.5 -160t-2 -51zM354 303q0 -215 162 -215 q76 0 126 69.5t60.5 146.5t10.5 124q0 84 -28.5 138.5t-98.5 54.5q-59 0 -121 -31t-76 -64.5t-19 -54t-5 -41.5q-10 -78 -11 -127zM641 90q66 29 124 98.5t67.5 135t9.5 98.5q0 113 -47 162t-123 67q41 -20 66.5 -79.5t25.5 -147.5q0 -39 -9.5 -107.5t-44 -131t-69.5 -95.5z " />
<glyph unicode="&#xa8;" horiz-adv-x="618" d="M166 1284q6 49 43 82t86 33t77.5 -33t22.5 -82q-8 -49 -45 -82t-88 -33q-47 0 -75.5 33t-20.5 82zM483 1282q6 49 43 82t86 33t78 -33t23 -82q-8 -49 -45 -82t-88 -33q-47 0 -76 33t-21 82z" />
<glyph unicode="&#xa9;" horiz-adv-x="1310" d="M88 520q0 41 20.5 187.5t221 323.5t452.5 177q227 0 377 -149.5t150 -372.5q0 -39 -20.5 -184.5t-223.5 -323.5t-453 -178q-225 0 -374.5 149.5t-149.5 370.5zM195 532q0 -180 123.5 -301.5t310.5 -121.5q207 0 371.5 143t182 266t17.5 158q0 182 -122 304t-310 122 q-207 0 -373 -145.5t-183 -267.5t-17 -157zM383 561v25q4 16 14.5 91t120 177t256.5 102q90 0 145.5 -34.5t47.5 -98.5q-6 -41 -42 -71.5t-77 -30.5q-43 0 -67.5 28.5t-18.5 73.5q4 27 18 47q-78 -10 -136.5 -86t-74.5 -174q-2 -20 -3 -35.5t-1 -23.5q0 -197 176 -197 q29 0 55.5 8.5t49.5 16.5l31 -62q-35 -23 -93.5 -38t-105.5 -15q-139 0 -217 84t-78 213z" />
<glyph unicode="&#xaa;" horiz-adv-x="0" />
<glyph unicode="&#xab;" horiz-adv-x="768" d="M68 434l327 330l45 -37l-182 -293l100 -295l-57 -37zM375 434l327 330l46 -37l-183 -293l101 -295l-58 -37z" />
<glyph unicode="&#xac;" horiz-adv-x="0" />
<glyph unicode="&#xad;" horiz-adv-x="679" d="M109 418l20 125h492l-21 -125h-491z" />
<glyph unicode="&#xae;" horiz-adv-x="1310" d="M88 520q0 41 20.5 187.5t221 323.5t452.5 177q227 0 377 -149.5t150 -372.5q0 -39 -20.5 -184.5t-223.5 -323.5t-453 -178q-225 0 -374.5 149.5t-149.5 370.5zM195 532q0 -180 123.5 -301.5t310.5 -121.5q207 0 371.5 143t182 266t17.5 158q0 182 -122 304t-310 122 q-207 0 -373 -145.5t-183 -267.5t-17 -157zM406 272l12 82h47l72 504h-74l12 84h248q94 0 160.5 -40t66.5 -118q0 -16 -10 -86.5t-156 -107.5l95 -215q4 -10 16 -10q18 0 23 20l4 41h59l-4 -41q-8 -55 -49.5 -92t-98.5 -37q-39 0 -65.5 18.5t-36.5 47.5l-90 229l-39 -279 h-192zM651 649h29q41 0 77 34t42 77q4 41 -20.5 69.5t-67.5 28.5h-29z" />
<glyph unicode="&#xb0;" horiz-adv-x="968" d="M94 260q0 25 10.5 93.5t90 139t159.5 117.5q-49 41 -97 100.5t-48 149.5q0 20 13.5 107.5t133 175.5t289.5 88q129 0 204 -76t75 -166v-20q-18 -133 -80 -198.5t-121 -106.5q55 -45 110.5 -112t55.5 -175q0 -25 -12.5 -113t-142.5 -189.5t-308 -101.5q-166 0 -249 88.5 t-83 198.5zM244 283q-10 -68 38 -136.5t146 -68.5q70 0 134.5 46t71.5 98t7 73q0 100 -65.5 151t-131.5 86q-84 -43 -136 -100t-64 -149zM264 874q0 -68 43 -130t125 -123l143 -103q51 -41 84 -95t33 -120q0 -20 -4 -51t-23.5 -75t-48.5 -62q57 23 97.5 71t48.5 111 q2 14 2 43q0 70 -34 126t-91 99l-152 107q-72 55 -115.5 112.5t-43.5 114.5v19q12 80 42.5 132t82.5 93q-63 -27 -120 -90.5t-69 -153.5v-25zM446 946q-12 -92 50.5 -144t132.5 -87q45 35 93 88t60 145v25q0 63 -41.5 105t-109.5 42q-63 0 -117.5 -48t-67.5 -126z" />
<glyph unicode="&#xb1;" horiz-adv-x="0" />
<glyph unicode="&#xb2;" horiz-adv-x="722" d="M96 471l244 281q72 84 110.5 138t47.5 120q8 41 -10.5 79.5t-57.5 38.5q-12 0 -24.5 -2t-30.5 -8q20 -20 20 -67q-8 -37 -39.5 -66t-68.5 -29q-41 0 -64.5 28t-17.5 67q10 78 83.5 129t188.5 51q86 0 142.5 -46t56.5 -134q0 -27 -4 -58.5t-59.5 -102.5t-178.5 -177 l-92 -80h295l-23 -162h-518z" />
<glyph unicode="&#xb3;" horiz-adv-x="679" d="M121 680l80 29q0 -70 27.5 -104t93.5 -34q45 0 89 35t52 88q6 43 -25.5 81t-87.5 38h-16l12 94h23q33 0 68.5 33t41.5 82q8 51 -20.5 82t-75.5 31h-10q4 -6 4 -22.5t2 -27.5q0 -35 -33 -61.5t-74 -26.5q-37 0 -58 27t-17 66q8 57 77.5 99t147.5 42q100 0 160.5 -41 t60.5 -123q0 -23 -4 -53.5t-40 -74.5t-87 -67q47 -16 79 -59t32 -100q0 -16 -7.5 -67.5t-84 -114t-189.5 -62.5q-109 0 -165 58.5t-56 152.5z" />
<glyph unicode="&#xb4;" horiz-adv-x="897" d="M139 1202l307 176q37 20 72 21q31 0 50.5 -22.5t15.5 -55.5t-22.5 -49.5t-43.5 -24.5l-371 -94z" />
<glyph unicode="&#xb5;" horiz-adv-x="1099" d="M57 600l13 76q12 86 79.5 145.5t153.5 59.5q76 0 127 -49.5t51 -124.5q0 -20 -2 -31l-65 -465q-4 -31 13 -51.5t48 -20.5q29 0 63.5 29t84.5 98l55 76l74 524h235l-98 -692q0 -49 45 -49q18 0 36.5 14.5t18.5 34.5l12 78h74l-12 -78q-10 -84 -79 -144.5t-155 -60.5 q-76 0 -127 49.5t-51 126.5v19l-20 -27q-51 -72 -111.5 -120t-140.5 -48l-43 -311h-236l144 1018q8 49 -43 49q-49 0 -58 -49l-12 -76h-74zM160 -283h67l47 344q47 -43 109 -43q11 1 31 5q-59 10 -91 41.5t-32 95.5q0 25 2 39l69 477q8 47 -19.5 73.5t-70.5 26.5 q-25 0 -41 -8q29 0 49.5 -27.5t14.5 -64.5zM705 174q-8 -66 33.5 -110t103.5 -44q16 0 24 3q-96 10 -96 120q0 20 2 31l90 641h-67z" />
<glyph unicode="&#xb6;" horiz-adv-x="972" d="M162 811v25q4 16 14 92t125 178t260 102h436l-16 -121h-84l-184 -1308h84l-17 -121h-200l198 1425h-123l-198 -1425h-203l18 121h84l103 733q-129 0 -213 86t-84 213zM213 817q0 -106 74.5 -179t185.5 -73q-82 37 -125 93.5t-43 142.5q0 14 2 31.5t10.5 79t79 142.5 t158.5 103q-123 0 -222.5 -86t-115.5 -211q-4 -29 -4 -43z" />
<glyph unicode="&#xb8;" horiz-adv-x="430" d="M31 -145l211 184h139l-119 -102q51 -4 86 -36t27 -81q-10 -72 -101.5 -113t-191.5 -41h-33l8 49h31q84 0 92 70q8 37 -19.5 53.5t-51.5 16.5h-78z" />
<glyph unicode="&#xb9;" horiz-adv-x="546" d="M217 481l80 580h-64l13 84h59q37 0 71 27.5t46 68.5h63l-106 -760h-162z" />
<glyph unicode="&#xba;" horiz-adv-x="0" />
<glyph unicode="&#xbb;" horiz-adv-x="768" d="M57 139l185 295l-103 293l58 37l233 -330l-328 -332zM365 139l184 295l-103 293l58 37l233 -330l-327 -332z" />
<glyph unicode="&#xbc;" horiz-adv-x="1552" d="M217 481l80 580h-64l13 84h59q37 0 71 27.5t46 68.5h63l-106 -760h-162zM244 27l737 1181h291l-969 -1243zM375 143l733 1014h-100zM772 205l6 53q129 106 192.5 214t129.5 284h196q-51 -133 -161.5 -264.5t-196.5 -190.5h145l15 100h162l-15 -100h78l-14 -96h-76 l-29 -205h-164l31 205h-299z" />
<glyph unicode="&#xbd;" horiz-adv-x="1603" d="M217 481l80 580h-64l13 84h59q37 0 71 27.5t46 68.5h63l-106 -760h-162zM244 27l737 1181h291l-969 -1243zM375 143l733 1014h-100zM872 0l244 281q80 88 116 146t44 112q6 41 -12.5 79.5t-57.5 38.5q-23 0 -35 -4l-18 -6q18 -20 18 -67q-6 -39 -37.5 -67t-70.5 -28 q-41 0 -63.5 27t-18.5 68q12 78 85 129t189 51q88 0 142.5 -45t54.5 -135q0 -27 -4 -59t-59.5 -102.5t-178.5 -176.5l-92 -80h295l-22 -162h-519z" />
<glyph unicode="&#xbe;" horiz-adv-x="1552" d="M121 680l80 29q0 -70 27.5 -104t93.5 -34q45 0 89 35t52 88q6 43 -25.5 81t-87.5 38h-16l12 94h23q33 0 68.5 33t41.5 82q8 51 -20.5 82t-75.5 31h-10q4 -6 4 -22.5t2 -27.5q0 -35 -33 -61.5t-74 -26.5q-37 0 -58 27t-17 66q8 57 77.5 99t147.5 42q100 0 160.5 -41 t60.5 -123q0 -23 -4 -53.5t-40 -74.5t-87 -67q47 -16 79 -59t32 -100q0 -16 -7.5 -67.5t-84 -114t-189.5 -62.5q-109 0 -165 58.5t-56 152.5zM365 27l737 1181h289l-967 -1243zM496 143l731 1014h-101zM891 205l6 53q102 84 173 184.5t149 313.5h198q-51 -131 -162.5 -263.5 t-195.5 -191.5h145l13 100h161l-12 -100h76l-12 -96h-78l-29 -205h-162l29 205h-299z" />
<glyph unicode="&#xbf;" horiz-adv-x="989" d="M41 12q0 12 12.5 107.5t157.5 193.5q154 92 307 187q4 18 -7 32.5t-34 28.5l37 55q66 0 114 -34.5t48 -100.5q0 -14 -9.5 -73.5t-181.5 -173t-178 -151.5t-6 -54q0 -76 60.5 -123t132.5 -47q238 0 311 217l96 -39q-35 -141 -170 -236.5t-315 -95.5q-164 0 -269.5 88 t-105.5 219zM92 18q0 -111 84 -181t199 -81q-84 27 -143.5 92.5t-59.5 165.5q0 27 2 41q16 109 192.5 239t180.5 167q-184 -104 -308 -186t-135.5 -157t-11.5 -100zM457 825q8 53 49 90t96 37q53 0 86 -36.5t25 -90.5q-8 -55 -49.5 -92t-96.5 -37q-53 0 -85.5 37t-24.5 92z " />
<glyph unicode="&#xc0;" d="M-74 0l17 121h71l537 1087h141l234 -1087h88l-17 -121h-401l16 121h66l-43 213h-367l-104 -213h94l-16 -121h-316zM328 455h282l-82 411zM379 1497q4 33 28.5 55.5t59.5 22.5t63 -21l258 -176l-20 -49l-346 96q-16 4 -32.5 22.5t-10.5 49.5zM569 946l164 -825h66 l-183 921z" />
<glyph unicode="&#xc1;" d="M-74 0l17 121h71l537 1087h141l234 -1087h88l-17 -121h-401l16 121h66l-43 213h-367l-104 -213h94l-16 -121h-316zM328 455h282l-82 411zM463 1372l307 176q37 20 72 21q31 0 50.5 -22.5t15.5 -55.5t-22.5 -49.5t-43.5 -24.5l-371 -94zM569 946l164 -825h66l-183 921z " />
<glyph unicode="&#xc2;" d="M-74 0l17 121h71l537 1087h141l234 -1087h88l-17 -121h-401l16 121h66l-43 213h-367l-104 -213h94l-16 -121h-316zM307 1341l371 279l290 -279l-43 -51l-274 141l-313 -141zM328 455h282l-82 411zM569 946l164 -825h66l-183 921z" />
<glyph unicode="&#xc3;" d="M-74 0l17 121h71l537 1087h141l234 -1087h88l-17 -121h-401l16 121h66l-43 213h-367l-104 -213h94l-16 -121h-316zM328 455h282l-82 411zM391 1323q27 82 84.5 129t120.5 47q57 0 96 -39t60 -39q25 0 52.5 22.5t49.5 55.5l39 -16q-25 -82 -82 -129.5t-123 -47.5 q-45 0 -89 38t-66 38q-23 0 -51.5 -23.5t-49.5 -52.5zM569 946l164 -825h66l-183 921z" />
<glyph unicode="&#xc4;" d="M-74 0l17 121h71l537 1087h141l234 -1087h88l-17 -121h-401l16 121h66l-43 213h-367l-104 -213h94l-16 -121h-316zM328 455h282l-82 411zM393 1413q6 49 43 82t86 33t77.5 -33t22.5 -82q-8 -49 -45 -82t-88 -33q-47 0 -75.5 33t-20.5 82zM569 946l164 -825h66l-183 921z M710 1411q6 49 43 82t86 33t78 -33t23 -82q-8 -49 -45 -82t-88 -33q-47 0 -76 33t-21 82z" />
<glyph unicode="&#xc5;" d="M-74 0l17 121h71l510 1032q-70 43 -69 129q0 17 2 25q8 72 67.5 123t132.5 51q66 0 109 -43t43 -107q0 -16 -4 -43.5t-32 -68.5t-71 -64l224 -1034h88l-17 -121h-401l16 121h66l-43 213h-367l-104 -213h94l-16 -121h-316zM328 455h282l-82 411zM569 946l164 -825h66 l-183 921zM580 1307q-4 -23 9 -38.5t36 -15.5q25 0 42 15.5t17 38.5q4 23 -8 37t-35 14q-53 0 -61 -51z" />
<glyph unicode="&#xc6;" horiz-adv-x="1525" d="M-74 0l17 121h71l817 1087h234q20 10 55 16.5t92 6.5q143 0 233.5 -56.5t90.5 -160.5q0 -21 -2 -33q-8 -61 -59.5 -106.5t-114.5 -45.5q-55 0 -93 36t-38 91q0 16 6 62.5t76 85.5q-25 8 -72 8q-78 0 -147.5 -67.5t-76.5 -114.5t-7 -70q0 -74 45 -121t100 -47h25l-19 -135 h-18q-96 0 -169 -57.5t-82 -116.5t-9 -76q0 -76 59 -123t131 -47q242 0 311 217l99 -41q-37 -139 -172 -234t-314 -95q-166 0 -271.5 87t-105.5 220q0 29 3 43h-293l-158 -213h88l-16 -121h-316zM399 455h263q20 33 34 52.5t37 39.5l62 428zM672 295q0 -115 92 -187.5 t209 -72.5q-96 29 -159.5 97.5t-63.5 164.5q0 25 6 69t31.5 87t62.5 75l88 629h-68l-88 -633q-47 -37 -73.5 -83t-34.5 -107q-2 -14 -2 -39z" />
<glyph unicode="&#xc7;" horiz-adv-x="886" d="M104 500q1 53 7 108q37 254 206.5 438.5t395.5 184.5q131 0 211 -56.5t80 -158.5q0 -25 -6.5 -63t-56.5 -83t-114 -45q-57 0 -94 37t-37 92q0 16 3 39t27 56.5t58 54.5l-24 4q-137 0 -250 -150.5t-130.5 -284.5t-18.5 -157.5t-1 -38.5q0 -168 71 -263t208 -95 q51 0 94 15.5t62 23.5l39 -90q-49 -35 -138.5 -59.5t-156.5 -24.5h-19l-53 -47q51 -4 86 -36t27 -81q-10 -72 -101.5 -113t-191.5 -41h-33l8 49h31q84 0 92 70q8 37 -19.5 53.5t-52.5 16.5h-77l167 149q-143 45 -221 179t-78 317zM154 498q0 -197 95 -319t226 -140 q-92 49 -167 156.5t-75 291.5q0 29 0.5 48.5t8.5 72.5q35 240 149.5 374t243.5 192q-154 -20 -297 -175t-163.5 -298.5t-20.5 -202.5z" />
<glyph unicode="&#xc8;" horiz-adv-x="964" d="M72 293q0 29 9 94.5t99 151.5t193 102q-76 27 -125 98.5t-49 151.5q0 16 12 92t147.5 162t296.5 86q141 0 236.5 -57.5t95.5 -161.5q0 -20 -5 -56t-56.5 -81.5t-114.5 -45.5q-55 0 -93 36t-38 91q0 16 3 39t25.5 57.5t53.5 51.5q-25 8 -60 8q-90 0 -159.5 -64.5 t-76.5 -112.5t-7 -65q0 -74 44 -126t99 -52h27l-19 -135h-20q-94 0 -168 -58.5t-82 -117.5t-8 -76q0 -78 58.5 -123t131.5 -45q238 0 312 217l96 -41q-35 -139 -170.5 -234t-313.5 -95q-168 0 -271 87t-103 222zM123 295q0 -115 91 -187.5t210 -72.5q-98 29 -161.5 96.5 t-63.5 165.5q0 25 2 37q14 104 63 160.5t129 103.5q-92 -14 -173 -85t-89 -132.5t-8 -85.5zM250 887q0 -74 51 -131.5t113 -71.5q-43 39 -63.5 79t-20.5 95l4 49q10 84 66.5 156t134.5 104q-94 -18 -181.5 -86t-101.5 -170q-2 -8 -2 -24zM457 1497q4 33 28.5 55.5t59.5 22.5 t63 -21l258 -176l-20 -49l-346 96q-16 4 -32.5 22.5t-10.5 49.5z" />
<glyph unicode="&#xc9;" horiz-adv-x="964" d="M72 293q0 29 9 94.5t99 151.5t193 102q-76 27 -125 98.5t-49 151.5q0 16 12 92t147.5 162t296.5 86q141 0 236.5 -57.5t95.5 -161.5q0 -20 -5 -56t-56.5 -81.5t-114.5 -45.5q-55 0 -93 36t-38 91q0 16 3 39t25.5 57.5t53.5 51.5q-25 8 -60 8q-90 0 -159.5 -64.5 t-76.5 -112.5t-7 -65q0 -74 44 -126t99 -52h27l-19 -135h-20q-94 0 -168 -58.5t-82 -117.5t-8 -76q0 -78 58.5 -123t131.5 -45q238 0 312 217l96 -41q-35 -139 -170.5 -234t-313.5 -95q-168 0 -271 87t-103 222zM123 295q0 -115 91 -187.5t210 -72.5q-98 29 -161.5 96.5 t-63.5 165.5q0 25 2 37q14 104 63 160.5t129 103.5q-92 -14 -173 -85t-89 -132.5t-8 -85.5zM250 887q0 -74 51 -131.5t113 -71.5q-43 39 -63.5 79t-20.5 95l4 49q10 84 66.5 156t134.5 104q-94 -18 -181.5 -86t-101.5 -170q-2 -8 -2 -24zM448 1372l307 176q37 20 72 21 q31 0 50.5 -22.5t15.5 -55.5t-22.5 -49.5t-43.5 -24.5l-371 -94z" />
<glyph unicode="&#xca;" horiz-adv-x="964" d="M72 293q0 29 9 94.5t99 151.5t193 102q-76 27 -125 98.5t-49 151.5q0 16 12 92t147.5 162t296.5 86q141 0 236.5 -57.5t95.5 -161.5q0 -20 -5 -56t-56.5 -81.5t-114.5 -45.5q-55 0 -93 36t-38 91q0 16 3 39t25.5 57.5t53.5 51.5q-25 8 -60 8q-90 0 -159.5 -64.5 t-76.5 -112.5t-7 -65q0 -74 44 -126t99 -52h27l-19 -135h-20q-94 0 -168 -58.5t-82 -117.5t-8 -76q0 -78 58.5 -123t131.5 -45q238 0 312 217l96 -41q-35 -139 -170.5 -234t-313.5 -95q-168 0 -271 87t-103 222zM123 295q0 -115 91 -187.5t210 -72.5q-98 29 -161.5 96.5 t-63.5 165.5q0 25 2 37q14 104 63 160.5t129 103.5q-92 -14 -173 -85t-89 -132.5t-8 -85.5zM250 887q0 -74 51 -131.5t113 -71.5q-43 39 -63.5 79t-20.5 95l4 49q10 84 66.5 156t134.5 104q-94 -18 -181.5 -86t-101.5 -170q-2 -8 -2 -24zM297 1341l371 279l290 -279l-43 -51 l-274 141l-313 -141z" />
<glyph unicode="&#xcb;" horiz-adv-x="964" d="M72 293q0 29 9 94.5t99 151.5t193 102q-76 27 -125 98.5t-49 151.5q0 16 12 92t147.5 162t296.5 86q141 0 236.5 -57.5t95.5 -161.5q0 -20 -5 -56t-56.5 -81.5t-114.5 -45.5q-55 0 -93 36t-38 91q0 16 3 39t25.5 57.5t53.5 51.5q-25 8 -60 8q-90 0 -159.5 -64.5 t-76.5 -112.5t-7 -65q0 -74 44 -126t99 -52h27l-19 -135h-20q-94 0 -168 -58.5t-82 -117.5t-8 -76q0 -78 58.5 -123t131.5 -45q238 0 312 217l96 -41q-35 -139 -170.5 -234t-313.5 -95q-168 0 -271 87t-103 222zM123 295q0 -115 91 -187.5t210 -72.5q-98 29 -161.5 96.5 t-63.5 165.5q0 25 2 37q14 104 63 160.5t129 103.5q-92 -14 -173 -85t-89 -132.5t-8 -85.5zM250 887q0 -74 51 -131.5t113 -71.5q-43 39 -63.5 79t-20.5 95l4 49q10 84 66.5 156t134.5 104q-94 -18 -181.5 -86t-101.5 -170q-2 -8 -2 -24zM408 1413q6 49 43 82t86 33 t77.5 -33t22.5 -82q-8 -49 -45 -82t-88 -33q-47 0 -75.5 33t-20.5 82zM725 1411q6 49 43 82t86 33t78 -33t23 -82q-8 -49 -45 -82t-88 -33q-47 0 -76 33t-21 82z" />
<glyph unicode="&#xcc;" horiz-adv-x="577" d="M43 0l16 121h86l138 966h-86l14 121h407l-16 -121h-84l-137 -966h86l-18 -121h-406zM170 1497q4 33 28.5 55.5t59.5 22.5t63 -21l258 -176l-20 -49l-346 96q-16 4 -32.5 22.5t-10.5 49.5zM197 121h65l137 966h-65z" />
<glyph unicode="&#xcd;" horiz-adv-x="577" d="M43 0l16 121h86l138 966h-86l14 121h407l-16 -121h-84l-137 -966h86l-18 -121h-406zM197 121h65l137 966h-65zM309 1372l307 176q37 20 72 21q31 0 50.5 -22.5t15.5 -55.5t-22.5 -49.5t-43.5 -24.5l-371 -94z" />
<glyph unicode="&#xce;" horiz-adv-x="577" d="M43 0l16 121h86l138 966h-86l14 121h407l-16 -121h-84l-137 -966h86l-18 -121h-406zM84 1341l371 279l290 -279l-43 -51l-274 141l-313 -141zM197 121h65l137 966h-65z" />
<glyph unicode="&#xcf;" horiz-adv-x="577" d="M43 0l16 121h86l138 966h-86l14 121h407l-16 -121h-84l-137 -966h86l-18 -121h-406zM168 1413q6 49 43 82t86 33t77.5 -33t22.5 -82q-8 -49 -45 -82t-88 -33q-47 0 -75.5 33t-20.5 82zM197 121h65l137 966h-65zM485 1411q6 49 43 82t86 33t78 -33t23 -82q-8 -49 -45 -82 t-88 -33q-47 0 -76 33t-21 82z" />
<glyph unicode="&#xd0;" horiz-adv-x="1130" d="M94 0l17 121h86l57 416h-127l16 125h129l62 425h-86l14 121h434q203 0 309.5 -135t106.5 -348v-74q-6 -33 -24.5 -167t-174 -309t-385.5 -175h-434zM248 121h65l60 416h-68zM324 662h65l62 425h-66zM432 121h78q147 0 226 138t100.5 283.5t21.5 229.5q0 143 -47 229 t-164 86h-78l-61 -425h127l-17 -125h-129zM639 106q150 68 227.5 174.5t99 258t21.5 217.5q0 137 -50 214t-159 132q59 -37 95 -117t36 -215q0 -74 -21.5 -226.5t-90 -269t-158.5 -168.5z" />
<glyph unicode="&#xd1;" horiz-adv-x="1083" d="M35 0l16 121h86l135 966h-84l15 121h213l407 -762l90 641h-86l17 121h311l-14 -121h-86l-154 -1087h-123l-409 766l-90 -645h86l-19 -121h-311zM383 860l393 -741l19 141l-394 739zM483 1323q27 82 84.5 129t120.5 47q57 0 96 -39t60 -39q25 0 52.5 22.5t49.5 55.5 l39 -16q-25 -82 -82 -129.5t-123 -47.5q-45 0 -89 38t-66 38q-23 0 -51.5 -23.5t-49.5 -52.5z" />
<glyph unicode="&#xd2;" horiz-adv-x="1058" d="M100 475q0 25 1 45.5t23.5 183t177.5 345t378 182.5q168 0 264 -148.5t96 -359.5v-70q-6 -31 -23.5 -155.5t-169 -319t-341.5 -194.5q-199 0 -302.5 137t-103.5 354zM152 475q0 -207 96 -324.5t244 -117.5q-115 31 -188 144.5t-73 295.5q1 57 11 135q31 225 152.5 380 t256.5 194q-147 0 -297.5 -144.5t-176 -326t-25.5 -236.5zM362 485q0 -154 55.5 -251t149.5 -97q113 0 207 137.5t110.5 248t18.5 144t2 62.5q0 154 -55 251t-150 97q-115 0 -208.5 -136t-120.5 -333q-8 -57 -9 -123zM482 1497q4 33 28.5 55.5t59.5 22.5t63 -21l258 -176 l-20 -49l-346 96q-16 4 -32.5 22.5t-10.5 49.5z" />
<glyph unicode="&#xd3;" horiz-adv-x="1058" d="M100 475q0 25 1 45.5t23.5 183t177.5 345t378 182.5q168 0 264 -148.5t96 -359.5v-70q-6 -31 -23.5 -155.5t-169 -319t-341.5 -194.5q-199 0 -302.5 137t-103.5 354zM152 475q0 -207 96 -324.5t244 -117.5q-115 31 -188 144.5t-73 295.5q1 57 11 135q31 225 152.5 380 t256.5 194q-147 0 -297.5 -144.5t-176 -326t-25.5 -236.5zM362 485q0 -154 55.5 -251t149.5 -97q113 0 207 137.5t110.5 248t18.5 144t2 62.5q0 154 -55 251t-150 97q-115 0 -208.5 -136t-120.5 -333q-8 -57 -9 -123zM596 1372l307 176q37 20 72 21q31 0 50.5 -22.5 t15.5 -55.5t-22.5 -49.5t-43.5 -24.5l-371 -94z" />
<glyph unicode="&#xd4;" horiz-adv-x="1058" d="M100 475q0 25 1 45.5t23.5 183t177.5 345t378 182.5q168 0 264 -148.5t96 -359.5v-70q-6 -31 -23.5 -155.5t-169 -319t-341.5 -194.5q-199 0 -302.5 137t-103.5 354zM152 475q0 -207 96 -324.5t244 -117.5q-115 31 -188 144.5t-73 295.5q1 57 11 135q31 225 152.5 380 t256.5 194q-147 0 -297.5 -144.5t-176 -326t-25.5 -236.5zM344 1333l371 279l290 -279l-43 -51l-274 141l-313 -141zM362 485q0 -154 55.5 -251t149.5 -97q113 0 207 137.5t110.5 248t18.5 144t2 62.5q0 154 -55 251t-150 97q-115 0 -208.5 -136t-120.5 -333q-8 -57 -9 -123 z" />
<glyph unicode="&#xd5;" horiz-adv-x="1058" d="M100 475q0 25 1 45.5t23.5 183t177.5 345t378 182.5q168 0 264 -148.5t96 -359.5v-70q-6 -31 -23.5 -155.5t-169 -319t-341.5 -194.5q-199 0 -302.5 137t-103.5 354zM152 475q0 -207 96 -324.5t244 -117.5q-115 31 -188 144.5t-73 295.5q1 57 11 135q31 225 152.5 380 t256.5 194q-147 0 -297.5 -144.5t-176 -326t-25.5 -236.5zM362 485q0 -154 55.5 -251t149.5 -97q113 0 207 137.5t110.5 248t18.5 144t2 62.5q0 154 -55 251t-150 97q-115 0 -208.5 -136t-120.5 -333q-8 -57 -9 -123zM452 1323q27 82 84.5 129t120.5 47q57 0 96 -39t60 -39 q25 0 52.5 22.5t49.5 55.5l39 -16q-25 -82 -82 -129.5t-123 -47.5q-45 0 -89 38t-66 38q-23 0 -51.5 -23.5t-49.5 -52.5z" />
<glyph unicode="&#xd6;" horiz-adv-x="1058" d="M100 475q0 25 1 45.5t23.5 183t177.5 345t378 182.5q168 0 264 -148.5t96 -359.5v-70q-6 -31 -23.5 -155.5t-169 -319t-341.5 -194.5q-199 0 -302.5 137t-103.5 354zM152 475q0 -207 96 -324.5t244 -117.5q-115 31 -188 144.5t-73 295.5q1 57 11 135q31 225 152.5 380 t256.5 194q-147 0 -297.5 -144.5t-176 -326t-25.5 -236.5zM362 485q0 -154 55.5 -251t149.5 -97q113 0 207 137.5t110.5 248t18.5 144t2 62.5q0 154 -55 251t-150 97q-115 0 -208.5 -136t-120.5 -333q-8 -57 -9 -123zM428 1413q6 49 43 82t86 33t77.5 -33t22.5 -82 q-8 -49 -45 -82t-88 -33q-47 0 -75.5 33t-20.5 82zM745 1411q6 49 43 82t86 33t78 -33t23 -82q-8 -49 -45 -82t-88 -33q-47 0 -76 33t-21 82z" />
<glyph unicode="&#xd7;" horiz-adv-x="0" />
<glyph unicode="&#xd8;" horiz-adv-x="1058" d="M100 -86l125 180q-125 137 -125 381q0 25 1.5 45t9.5 88q37 258 191.5 440.5t377.5 182.5q76 0 139.5 -34t110.5 -95l121 174l77 -33l-151 -217q31 -63 47 -141t16 -160v-72q-6 -31 -23.5 -155.5t-169 -319t-341.5 -194.5q-125 0 -215 55l-111 -158zM152 475 q0 -207 96 -324.5t244 -117.5q-115 31 -188 144.5t-73 295.5q1 57 11 135q31 225 152.5 380t256.5 194q-147 0 -297.5 -144.5t-176 -326t-25.5 -236.5zM360 485q0 -43 6.5 -86t16.5 -80l463 664q-51 94 -146 94q-115 0 -209 -136t-111.5 -266t-18.5 -152.5t-1 -37.5z M422 227q55 -90 145 -90q113 0 207 137.5t110.5 248t18.5 144t2 62.5q0 94 -20 162z" />
<glyph unicode="&#xd9;" d="M139 291q0 33 6 74l103 722h-86l16 121h406l-15 -121h-86l-102 -722q-6 -37 -6 -68q0 -188 176 -188q209 0 244 256l102 722h-86l14 121h322l-14 -121h-86l-103 -722q-27 -184 -144.5 -288t-301.5 -104q-158 0 -258.5 79t-100.5 239zM190 299q0 -137 85 -204.5t235 -67.5 q-109 14 -180.5 80.5t-71.5 197.5q0 14 2 32t2 28l103 722h-66l-102 -722q-6 -35 -7 -66zM420 1497q4 33 28.5 55.5t59.5 22.5t63 -21l258 -176l-20 -49l-346 96q-16 4 -32.5 22.5t-10.5 49.5z" />
<glyph unicode="&#xda;" d="M139 291q0 33 6 74l103 722h-86l16 121h406l-15 -121h-86l-102 -722q-6 -37 -6 -68q0 -188 176 -188q209 0 244 256l102 722h-86l14 121h322l-14 -121h-86l-103 -722q-27 -184 -144.5 -288t-301.5 -104q-158 0 -258.5 79t-100.5 239zM190 299q0 -137 85 -204.5t235 -67.5 q-109 14 -180.5 80.5t-71.5 197.5q0 14 2 32t2 28l103 722h-66l-102 -722q-6 -35 -7 -66zM557 1372l307 176q37 20 72 21q31 0 50.5 -22.5t15.5 -55.5t-22.5 -49.5t-43.5 -24.5l-371 -94z" />
<glyph unicode="&#xdb;" d="M139 291q0 33 6 74l103 722h-86l16 121h406l-15 -121h-86l-102 -722q-6 -37 -6 -68q0 -188 176 -188q209 0 244 256l102 722h-86l14 121h322l-14 -121h-86l-103 -722q-27 -184 -144.5 -288t-301.5 -104q-158 0 -258.5 79t-100.5 239zM190 299q0 -137 85 -204.5t235 -67.5 q-109 14 -180.5 80.5t-71.5 197.5q0 14 2 32t2 28l103 722h-66l-102 -722q-6 -35 -7 -66zM350 1341l371 279l290 -279l-43 -51l-274 141l-313 -141z" />
<glyph unicode="&#xdc;" d="M139 291q0 33 6 74l103 722h-86l16 121h406l-15 -121h-86l-102 -722q-6 -37 -6 -68q0 -188 176 -188q209 0 244 256l102 722h-86l14 121h322l-14 -121h-86l-103 -722q-27 -184 -144.5 -288t-301.5 -104q-158 0 -258.5 79t-100.5 239zM190 299q0 -137 85 -204.5t235 -67.5 q-109 14 -180.5 80.5t-71.5 197.5q0 14 2 32t2 28l103 722h-66l-102 -722q-6 -35 -7 -66zM481 1421q6 49 43 82t86 33t77.5 -33t22.5 -82q-8 -49 -45 -82t-88 -33q-47 0 -75.5 33t-20.5 82zM798 1419q6 49 43 82t86 33t78 -33t23 -82q-8 -49 -45 -82t-88 -33q-47 0 -76 33 t-21 82z" />
<glyph unicode="&#xdd;" horiz-adv-x="905" d="M-246 -174q0 14 6.5 46t51.5 72t100 40q53 0 86 -33t33 -84q0 -12 -2 -19q0 -18 -4.5 -30.5t-20.5 -34.5q86 0 173 46t153 136l-125 1122h-94l16 121h440l-16 -121h-92l78 -841q68 141 134 340.5t115 500.5h-81l16 121h297l-17 -121h-71q-109 -627 -368 -1028t-576 -401 q-96 0 -164 47t-68 121zM258 1087l121 -1077q12 12 25.5 29.5t33.5 48.5l-114 999h-66zM491 1347l307 176q37 20 72 21q31 0 50.5 -22.5t15.5 -55.5t-22.5 -49.5t-43.5 -24.5l-371 -94z" />
<glyph unicode="&#xde;" horiz-adv-x="1032" d="M45 0l16 121h86l136 966h-84l14 121h408l-17 -121h-86l-10 -83h129q164 0 270.5 -86.5t106.5 -221.5v-24q-4 -16 -14.5 -97t-146.5 -182.5t-316 -101.5h-131l-23 -170h84l-16 -121h-406zM199 121h65l137 966h-67zM424 412h129q86 0 143.5 68.5t69.5 166.5q4 37 4 55 q0 80 -38 130.5t-111 50.5h-132zM672 397q68 20 134 82t74.5 121t8.5 84q0 86 -48.5 143.5t-97.5 69.5q39 -33 58.5 -83t19.5 -112q0 -14 -2 -30.5t-6 -58.5t-45 -111.5t-96 -104.5z" />
<glyph unicode="&#xdf;" horiz-adv-x="1005" d="M18 0l19 121h84l94 670q25 180 138.5 310t297.5 130q135 0 224.5 -66.5t89.5 -206.5q0 -31 -7.5 -85t-81 -135t-153.5 -103q100 -20 159.5 -94t59.5 -170q0 -29 -12 -115t-136 -179t-266 -93q-27 0 -54.5 5t-53.5 13l10 72q104 10 182 81.5t86.5 129t8.5 86.5 q0 90 -49.5 146t-139.5 67l14 98q90 23 134.5 70t53.5 111.5t9 92.5q0 72 -29.5 116t-78.5 44q-74 0 -109 -68.5t-49 -170.5l-123 -877h-322zM172 121h68l94 667q23 162 75 252t136 125q-96 -29 -176 -123t-103 -254zM627 100q80 35 129 86.5t56 102.5t7 73q0 78 -45 132.5 t-98 74.5q84 -68 84 -198q0 -14 -7.5 -66.5t-41 -106t-84.5 -98.5zM711 723q53 31 90 69.5t42 75.5t5 48.5v15.5q0 70 -34 118.5t-85 71.5q23 -33 36 -78t13 -96q0 -14 -2 -30.5t-6 -57.5t-15.5 -67.5t-43.5 -69.5z" />
<glyph unicode="&#xe0;" horiz-adv-x="1048" d="M82 344q0 45 16.5 166t131 258t249.5 137q63 0 118.5 -34.5t90.5 -94.5l2 10q6 49 45 84t88 35q47 0 78 -34.5t25 -84.5l-88 -612q0 -49 45 -49q18 0 36.5 14.5t18.5 34.5l12 78h74l-12 -78q-10 -84 -79 -144.5t-155 -60.5q-68 0 -116 39t-58 103q-55 -66 -121.5 -104 t-134.5 -38q-117 0 -191.5 105.5t-74.5 269.5zM133 348q0 -141 59.5 -234.5t161.5 -93.5q20 0 31 3q-86 12 -131 91t-45 212v44t8 66q25 176 100.5 287t182.5 127q-10 2 -31 2q-117 0 -212 -124t-109.5 -231.5t-14.5 -148.5zM340 348q0 -100 28.5 -162.5t80.5 -62.5 q59 0 116.5 92t69.5 180t12 129q0 100 -29.5 164t-78.5 64q-61 0 -117.5 -93.5t-69 -181.5t-12.5 -129zM387 1182q4 33 28.5 55.5t59.5 22.5t63 -21l258 -176l-20 -49l-346 96q-16 4 -32.5 22.5t-10.5 49.5zM653 174q-8 -66 34 -110t104 -44q16 0 24 3q-96 10 -96 120 q0 21 2 31l94 680q-27 0 -49.5 -19.5t-24.5 -50.5z" />
<glyph unicode="&#xe1;" horiz-adv-x="1048" d="M82 344q0 45 16.5 166t131 258t249.5 137q63 0 118.5 -34.5t90.5 -94.5l2 10q6 49 45 84t88 35q47 0 78 -34.5t25 -84.5l-88 -612q0 -49 45 -49q18 0 36.5 14.5t18.5 34.5l12 78h74l-12 -78q-10 -84 -79 -144.5t-155 -60.5q-68 0 -116 39t-58 103q-55 -66 -121.5 -104 t-134.5 -38q-117 0 -191.5 105.5t-74.5 269.5zM133 348q0 -141 59.5 -234.5t161.5 -93.5q20 0 31 3q-86 12 -131 91t-45 212v44t8 66q25 176 100.5 287t182.5 127q-10 2 -31 2q-117 0 -212 -124t-109.5 -231.5t-14.5 -148.5zM340 348q0 -100 28.5 -162.5t80.5 -62.5 q59 0 116.5 92t69.5 180t12 129q0 100 -29.5 164t-78.5 64q-61 0 -117.5 -93.5t-69 -181.5t-12.5 -129zM485 1057l307 176q37 20 72 21q31 0 50.5 -22.5t15.5 -55.5t-22.5 -49.5t-43.5 -24.5l-371 -94zM653 174q-8 -66 34 -110t104 -44q16 0 24 3q-96 10 -96 120q0 21 2 31 l94 680q-27 0 -49.5 -19.5t-24.5 -50.5z" />
<glyph unicode="&#xe2;" horiz-adv-x="1048" d="M82 344q0 45 16.5 166t131 258t249.5 137q63 0 118.5 -34.5t90.5 -94.5l2 10q6 49 45 84t88 35q47 0 78 -34.5t25 -84.5l-88 -612q0 -49 45 -49q18 0 36.5 14.5t18.5 34.5l12 78h74l-12 -78q-10 -84 -79 -144.5t-155 -60.5q-68 0 -116 39t-58 103q-55 -66 -121.5 -104 t-134.5 -38q-117 0 -191.5 105.5t-74.5 269.5zM133 348q0 -141 59.5 -234.5t161.5 -93.5q20 0 31 3q-86 12 -131 91t-45 212v44t8 66q25 176 100.5 287t182.5 127q-10 2 -31 2q-117 0 -212 -124t-109.5 -231.5t-14.5 -148.5zM285 1018l371 279l290 -279l-43 -51l-274 141 l-313 -141zM340 348q0 -100 28.5 -162.5t80.5 -62.5q59 0 116.5 92t69.5 180t12 129q0 100 -29.5 164t-78.5 64q-61 0 -117.5 -93.5t-69 -181.5t-12.5 -129zM653 174q-8 -66 34 -110t104 -44q16 0 24 3q-96 10 -96 120q0 21 2 31l94 680q-27 0 -49.5 -19.5t-24.5 -50.5z" />
<glyph unicode="&#xe3;" horiz-adv-x="1048" d="M82 344q0 45 16.5 166t131 258t249.5 137q63 0 118.5 -34.5t90.5 -94.5l2 10q6 49 45 84t88 35q47 0 78 -34.5t25 -84.5l-88 -612q0 -49 45 -49q18 0 36.5 14.5t18.5 34.5l12 78h74l-12 -78q-10 -84 -79 -144.5t-155 -60.5q-68 0 -116 39t-58 103q-55 -66 -121.5 -104 t-134.5 -38q-117 0 -191.5 105.5t-74.5 269.5zM133 348q0 -141 59.5 -234.5t161.5 -93.5q20 0 31 3q-86 12 -131 91t-45 212v44t8 66q25 176 100.5 287t182.5 127q-10 2 -31 2q-117 0 -212 -124t-109.5 -231.5t-14.5 -148.5zM340 348q0 -100 28.5 -162.5t80.5 -62.5 q59 0 116.5 92t69.5 180t12 129q0 100 -29.5 164t-78.5 64q-61 0 -117.5 -93.5t-69 -181.5t-12.5 -129zM393 1008q27 82 84.5 129t120.5 47q57 0 96 -39t60 -39q25 0 52.5 22.5t49.5 55.5l39 -16q-25 -82 -82 -129.5t-123 -47.5q-45 0 -89 38t-66 38q-23 0 -51.5 -23.5 t-49.5 -52.5zM653 174q-8 -66 34 -110t104 -44q16 0 24 3q-96 10 -96 120q0 21 2 31l94 680q-27 0 -49.5 -19.5t-24.5 -50.5z" />
<glyph unicode="&#xe4;" horiz-adv-x="1048" d="M82 344q0 45 16.5 166t131 258t249.5 137q63 0 118.5 -34.5t90.5 -94.5l2 10q6 49 45 84t88 35q47 0 78 -34.5t25 -84.5l-88 -612q0 -49 45 -49q18 0 36.5 14.5t18.5 34.5l12 78h74l-12 -78q-10 -84 -79 -144.5t-155 -60.5q-68 0 -116 39t-58 103q-55 -66 -121.5 -104 t-134.5 -38q-117 0 -191.5 105.5t-74.5 269.5zM133 348q0 -141 59.5 -234.5t161.5 -93.5q20 0 31 3q-86 12 -131 91t-45 212v44t8 66q25 176 100.5 287t182.5 127q-10 2 -31 2q-117 0 -212 -124t-109.5 -231.5t-14.5 -148.5zM340 348q0 -100 28.5 -162.5t80.5 -62.5 q59 0 116.5 92t69.5 180t12 129q0 100 -29.5 164t-78.5 64q-61 0 -117.5 -93.5t-69 -181.5t-12.5 -129zM359 1096q6 49 43 82t86 33t77.5 -33t22.5 -82q-8 -49 -45 -82t-88 -33q-47 0 -75.5 33t-20.5 82zM653 174q-8 -66 34 -110t104 -44q16 0 24 3q-96 10 -96 120 q0 21 2 31l94 680q-27 0 -49.5 -19.5t-24.5 -50.5zM676 1094q6 49 43 82t86 33t78 -33t23 -82q-8 -49 -45 -82t-88 -33q-47 0 -76 33t-21 82z" />
<glyph unicode="&#xe5;" horiz-adv-x="1048" d="M82 344q0 45 16.5 166t131 258t249.5 137q63 0 118.5 -34.5t90.5 -94.5l2 10q6 49 45 84t88 35q47 0 78 -34.5t25 -84.5l-88 -612q0 -49 45 -49q18 0 36.5 14.5t18.5 34.5l12 78h74l-12 -78q-10 -84 -79 -144.5t-155 -60.5q-68 0 -116 39t-58 103q-55 -66 -121.5 -104 t-134.5 -38q-117 0 -191.5 105.5t-74.5 269.5zM133 348q0 -141 59.5 -234.5t161.5 -93.5q20 0 31 3q-86 12 -131 91t-45 212v44t8 66q25 176 100.5 287t182.5 127q-10 2 -31 2q-117 0 -212 -124t-109.5 -231.5t-14.5 -148.5zM340 348q0 -100 28.5 -162.5t80.5 -62.5 q59 0 116.5 92t69.5 180t12 129q0 100 -29.5 164t-78.5 64q-61 0 -117.5 -93.5t-69 -181.5t-12.5 -129zM483 1118q0 16 6 57.5t65.5 92.5t131.5 51q66 0 108.5 -43t42.5 -109v-24q-10 -76 -67.5 -126t-132.5 -50q-68 0 -111 43t-43 108zM608 1143q-4 -27 12.5 -40t32.5 -13 q25 0 41 14t20 39q4 27 -12 40t-33 13q-23 0 -40 -15.5t-21 -37.5zM653 174q-8 -66 34 -110t104 -44q16 0 24 3q-96 10 -96 120q0 21 2 31l94 680q-27 0 -49.5 -19.5t-24.5 -50.5z" />
<glyph unicode="&#xe6;" horiz-adv-x="1413" d="M82 344q0 45 16.5 166t131 258t249.5 137q63 0 118.5 -34.5t90.5 -94.5l2 10q6 49 45 84t88 35q63 0 95 -57q96 57 212 57q141 0 209 -64.5t68 -150.5q0 -20 -8 -80.5t-140.5 -137.5t-347.5 -77q-8 -55 -8 -110q0 -104 40 -148.5t108 -44.5q72 0 129 61.5t75 131.5 l97 -21q-31 -115 -123 -201t-246 -86q-96 0 -181 48.5t-130 142.5q-51 -80 -130 -139.5t-194 -59.5q-117 0 -191.5 105.5t-74.5 269.5zM133 348q0 -141 59.5 -234.5t161.5 -93.5q20 0 31 3q-86 12 -131 91t-45 212v44t8 66q25 176 100.5 287t182.5 127q-10 2 -31 2 q-117 0 -212 -124t-109.5 -231.5t-14.5 -148.5zM340 348q0 -100 28.5 -162.5t80.5 -62.5q59 0 116.5 92t75.5 221q6 47 6 88q0 100 -29.5 164t-78.5 64q-61 0 -117.5 -93.5t-69 -181.5t-12.5 -129zM686 371q0 -123 60.5 -209t136.5 -115q-53 51 -92 125t-39 186q0 37 6 78 l57 418q-27 0 -49.5 -19.5t-24.5 -50.5l-49 -348q-6 -35 -6 -65zM924 487q113 0 177.5 66.5t74.5 136.5q2 10 2 31q0 76 -56 76q-76 0 -130 -99.5t-68 -210.5zM1071 481q96 27 153.5 74t63.5 87t6 56q0 61 -35.5 94t-72.5 37q43 -27 43 -98l-4 -49q-8 -66 -57.5 -122 t-96.5 -79z" />
<glyph unicode="&#xe7;" horiz-adv-x="847" d="M82 360q0 35 6 76q25 188 159 324.5t312 136.5q139 0 214 -74.5t75 -185.5q0 -27 -5 -61.5t-51.5 -78.5t-103.5 -44q-51 0 -85 33.5t-34 84.5v19q8 51 48 89t92 46q-12 23 -44 40t-71 17q-102 0 -155.5 -96t-68 -204.5t-15.5 -136.5t-1 -42q0 -98 32 -154.5t112 -56.5 q63 0 116.5 47t81.5 125l92 -26q-45 -121 -136 -191t-222 -70h-16l-49 -40q51 -4 85.5 -36t26.5 -81q-10 -72 -101 -113t-192 -41h-32l8 49h30q84 0 93 70q8 37 -19.5 53.5t-52.5 16.5h-78l168 147q-102 39 -160.5 136.5t-58.5 221.5zM133 367q0 -131 66.5 -220.5 t167.5 -109.5q-63 45 -105.5 113.5t-42.5 189.5q0 43 6 96q25 174 95.5 266.5t158.5 133.5q-121 -25 -219 -134.5t-112.5 -206t-14.5 -128.5z" />
<glyph unicode="&#xe8;" horiz-adv-x="870" d="M82 362q0 37 15.5 151t153.5 253t327 139q141 0 208.5 -64.5t67.5 -150.5q0 -20 -8 -80.5t-140.5 -137.5t-347.5 -77q-8 -55 -8 -110q0 -104 40 -148.5t108 -44.5q72 0 129 61.5t75 131.5l97 -21q-31 -115 -123 -201t-246 -86q-160 0 -254 110t-94 275zM133 367 q0 -129 66.5 -219.5t167.5 -112.5q-61 43 -104.5 113.5t-43.5 191.5q0 43 6 96q25 172 97.5 270.5t158.5 139.5q-121 -25 -220 -138.5t-113.5 -211t-14.5 -129.5zM355 1182q4 33 28.5 55.5t59.5 22.5t63 -21l258 -176l-20 -49l-346 96q-16 4 -32.5 22.5t-10.5 49.5zM371 487 q113 0 177.5 66.5t74.5 136.5q2 10 2 31q0 76 -56 76q-76 0 -130 -99.5t-68 -210.5zM518 481q96 27 153.5 74t63.5 87t6 56q0 61 -35.5 94t-72.5 37q43 -27 43 -98l-4 -49q-8 -66 -57.5 -122t-96.5 -79z" />
<glyph unicode="&#xe9;" horiz-adv-x="870" d="M82 362q0 37 15.5 151t153.5 253t327 139q141 0 208.5 -64.5t67.5 -150.5q0 -20 -8 -80.5t-140.5 -137.5t-347.5 -77q-8 -55 -8 -110q0 -104 40 -148.5t108 -44.5q72 0 129 61.5t75 131.5l97 -21q-31 -115 -123 -201t-246 -86q-160 0 -254 110t-94 275zM133 367 q0 -129 66.5 -219.5t167.5 -112.5q-61 43 -104.5 113.5t-43.5 191.5q0 43 6 96q25 172 97.5 270.5t158.5 139.5q-121 -25 -220 -138.5t-113.5 -211t-14.5 -129.5zM371 487q113 0 177.5 66.5t74.5 136.5q2 10 2 31q0 76 -56 76q-76 0 -130 -99.5t-68 -210.5zM381 1057 l307 176q37 20 72 21q31 0 50.5 -22.5t15.5 -55.5t-22.5 -49.5t-43.5 -24.5l-371 -94zM518 481q96 27 153.5 74t63.5 87t6 56q0 61 -35.5 94t-72.5 37q43 -27 43 -98l-4 -49q-8 -66 -57.5 -122t-96.5 -79z" />
<glyph unicode="&#xea;" horiz-adv-x="870" d="M82 362q0 37 15.5 151t153.5 253t327 139q141 0 208.5 -64.5t67.5 -150.5q0 -20 -8 -80.5t-140.5 -137.5t-347.5 -77q-8 -55 -8 -110q0 -104 40 -148.5t108 -44.5q72 0 129 61.5t75 131.5l97 -21q-31 -115 -123 -201t-246 -86q-160 0 -254 110t-94 275zM133 367 q0 -129 66.5 -219.5t167.5 -112.5q-61 43 -104.5 113.5t-43.5 191.5q0 43 6 96q25 172 97.5 270.5t158.5 139.5q-121 -25 -220 -138.5t-113.5 -211t-14.5 -129.5zM240 1018l371 279l290 -279l-43 -51l-274 141l-313 -141zM371 487q113 0 177.5 66.5t74.5 136.5q2 10 2 31 q0 76 -56 76q-76 0 -130 -99.5t-68 -210.5zM518 481q96 27 153.5 74t63.5 87t6 56q0 61 -35.5 94t-72.5 37q43 -27 43 -98l-4 -49q-8 -66 -57.5 -122t-96.5 -79z" />
<glyph unicode="&#xeb;" horiz-adv-x="870" d="M82 362q0 37 15.5 151t153.5 253t327 139q141 0 208.5 -64.5t67.5 -150.5q0 -20 -8 -80.5t-140.5 -137.5t-347.5 -77q-8 -55 -8 -110q0 -104 40 -148.5t108 -44.5q72 0 129 61.5t75 131.5l97 -21q-31 -115 -123 -201t-246 -86q-160 0 -254 110t-94 275zM133 367 q0 -129 66.5 -219.5t167.5 -112.5q-61 43 -104.5 113.5t-43.5 191.5q0 43 6 96q25 172 97.5 270.5t158.5 139.5q-121 -25 -220 -138.5t-113.5 -211t-14.5 -129.5zM309 1096q6 49 43 82t86 33t77.5 -33t22.5 -82q-8 -49 -45 -82t-88 -33q-47 0 -75.5 33t-20.5 82zM371 487 q113 0 177.5 66.5t74.5 136.5q2 10 2 31q0 76 -56 76q-76 0 -130 -99.5t-68 -210.5zM518 481q96 27 153.5 74t63.5 87t6 56q0 61 -35.5 94t-72.5 37q43 -27 43 -98l-4 -49q-8 -66 -57.5 -122t-96.5 -79zM626 1094q6 49 43 82t86 33t78 -33t23 -82q-8 -49 -45 -82t-88 -33 q-47 0 -76 33t-21 82z" />
<glyph unicode="&#xec;" horiz-adv-x="538" d="M70 1182q4 33 28.5 55.5t59.5 22.5t63 -21l258 -176l-20 -49l-346 96q-16 4 -32.5 22.5t-10.5 49.5zM92 143q0 20 2 31l96 692h236l-96 -692q-8 -49 45 -49q47 0 55 49l12 78h74l-12 -78q-12 -86 -80 -145.5t-154 -59.5q-76 0 -127 49.5t-51 124.5zM145 174 q-8 -68 33 -111t103 -43q16 0 24 3q-94 10 -94 127v24l92 641h-67z" />
<glyph unicode="&#xed;" horiz-adv-x="538" d="M92 143q0 20 2 31l96 692h236l-96 -692q-8 -49 45 -49q47 0 55 49l12 78h74l-12 -78q-12 -86 -80 -145.5t-154 -59.5q-76 0 -127 49.5t-51 124.5zM145 174q-8 -68 33 -111t103 -43q16 0 24 3q-94 10 -94 127v24l92 641h-67zM166 1057l307 176q37 20 72 21 q31 0 50.5 -22.5t15.5 -55.5t-22.5 -49.5t-43.5 -24.5l-371 -94z" />
<glyph unicode="&#xee;" horiz-adv-x="538" d="M-4 1018l371 279l290 -279l-43 -51l-274 141l-313 -141zM92 143q0 20 2 31l96 692h236l-96 -692q-8 -49 45 -49q47 0 55 49l12 78h74l-12 -78q-12 -86 -80 -145.5t-154 -59.5q-76 0 -127 49.5t-51 124.5zM145 174q-8 -68 33 -111t103 -43q16 0 24 3q-94 10 -94 127v24 l92 641h-67z" />
<glyph unicode="&#xef;" horiz-adv-x="538" d="M88 1096q6 49 43 82t86 33t77.5 -33t22.5 -82q-8 -49 -45 -82t-88 -33q-47 0 -75.5 33t-20.5 82zM92 143q0 20 2 31l96 692h236l-96 -692q-8 -49 45 -49q47 0 55 49l12 78h74l-12 -78q-12 -86 -80 -145.5t-154 -59.5q-76 0 -127 49.5t-51 124.5zM145 174q-8 -68 33 -111 t103 -43q16 0 24 3q-94 10 -94 127v24l92 641h-67zM405 1094q6 49 43 82t86 33t78 -33t23 -82q-8 -49 -45 -82t-88 -33q-47 0 -76 33t-21 82z" />
<glyph unicode="&#xf1;" horiz-adv-x="1101" d="M57 600l13 76q12 86 79.5 145.5t153.5 59.5q80 0 129 -51.5t49 -129.5l27 37q68 96 128 132t130 36q86 0 143.5 -57t57.5 -141q0 -20 -2 -31l-72 -502q-8 -49 45 -49q47 0 55 49l13 78h73l-12 -78q-12 -86 -79.5 -145.5t-153.5 -59.5q-76 0 -127.5 49.5t-51.5 124.5 q0 20 2 31l70 490q4 31 -12.5 51t-48.5 20q-31 0 -62 -26.5t-86 -100.5l-61 -80l-72 -528h-235l94 676q8 49 -43 49q-49 0 -58 -49l-12 -76h-74zM207 51h65l90 625q8 47 -19.5 73.5t-70.5 26.5q-25 0 -41 -8q29 0 49.5 -27.5t14.5 -64.5zM374 1008q27 82 84.5 129t120.5 47 q57 0 96 -39t60 -39q25 0 52.5 22.5t49.5 55.5l39 -16q-25 -82 -82 -129.5t-123 -47.5q-45 0 -89 38t-66 38q-23 0 -51.5 -23.5t-49.5 -52.5zM700 776q27 6 52.5 -21.5t25.5 -72.5v-18l-69 -490q-8 -68 32.5 -111t102.5 -43q16 0 24 3q-94 10 -94 127v24l72 490 q8 57 -23.5 87.5t-81.5 30.5q-23 0 -41 -6z" />
<glyph unicode="&#xf2;" horiz-adv-x="907" d="M82 356q0 39 16.5 157t147.5 255t291 137q139 0 223 -107.5t84 -275.5q0 -43 -16.5 -161.5t-140 -255t-281.5 -136.5q-141 0 -232.5 109.5t-91.5 277.5zM133 360q0 -150 81 -245t216 -95q-96 10 -156.5 101.5t-60.5 230.5q0 41 6 84q25 174 118 290t210 128 q-152 0 -268.5 -120t-131 -229.5t-14.5 -144.5zM277 1182q4 33 28.5 55.5t59.5 22.5t63 -21l258 -176l-20 -49l-346 96q-16 4 -32.5 22.5t-10.5 49.5zM340 365q0 -104 42 -173t107 -69q80 0 148 90t80 175t12 118q0 106 -40.5 176t-108.5 70q-80 0 -147.5 -91.5t-80 -176.5 t-12.5 -119z" />
<glyph unicode="&#xf3;" horiz-adv-x="907" d="M82 356q0 39 16.5 157t147.5 255t291 137q139 0 223 -107.5t84 -275.5q0 -43 -16.5 -161.5t-140 -255t-281.5 -136.5q-141 0 -232.5 109.5t-91.5 277.5zM133 360q0 -150 81 -245t216 -95q-96 10 -156.5 101.5t-60.5 230.5q0 41 6 84q25 174 118 290t210 128 q-152 0 -268.5 -120t-131 -229.5t-14.5 -144.5zM340 365q0 -104 42 -173t107 -69q80 0 148 90t80 175t12 118q0 106 -40.5 176t-108.5 70q-80 0 -147.5 -91.5t-80 -176.5t-12.5 -119zM370 1057l307 176q37 20 72 21q31 0 50.5 -22.5t15.5 -55.5t-22.5 -49.5t-43.5 -24.5 l-371 -94z" />
<glyph unicode="&#xf4;" horiz-adv-x="907" d="M82 356q0 39 16.5 157t147.5 255t291 137q139 0 223 -107.5t84 -275.5q0 -43 -16.5 -161.5t-140 -255t-281.5 -136.5q-141 0 -232.5 109.5t-91.5 277.5zM133 360q0 -150 81 -245t216 -95q-96 10 -156.5 101.5t-60.5 230.5q0 41 6 84q25 174 118 290t210 128 q-152 0 -268.5 -120t-131 -229.5t-14.5 -144.5zM213 1018l371 279l290 -279l-43 -51l-274 141l-313 -141zM340 365q0 -104 42 -173t107 -69q80 0 148 90t80 175t12 118q0 106 -40.5 176t-108.5 70q-80 0 -147.5 -91.5t-80 -176.5t-12.5 -119z" />
<glyph unicode="&#xf5;" horiz-adv-x="907" d="M82 356q0 39 16.5 157t147.5 255t291 137q139 0 223 -107.5t84 -275.5q0 -43 -16.5 -161.5t-140 -255t-281.5 -136.5q-141 0 -232.5 109.5t-91.5 277.5zM133 360q0 -150 81 -245t216 -95q-96 10 -156.5 101.5t-60.5 230.5q0 41 6 84q25 174 118 290t210 128 q-152 0 -268.5 -120t-131 -229.5t-14.5 -144.5zM305 1008q27 82 84.5 129t120.5 47q57 0 96 -39t60 -39q25 0 52.5 22.5t49.5 55.5l39 -16q-25 -82 -82 -129.5t-123 -47.5q-45 0 -89 38t-66 38q-23 0 -51.5 -23.5t-49.5 -52.5zM340 365q0 -104 42 -173t107 -69q80 0 148 90 t80 175t12 118q0 106 -40.5 176t-108.5 70q-80 0 -147.5 -91.5t-80 -176.5t-12.5 -119z" />
<glyph unicode="&#xf6;" horiz-adv-x="907" d="M82 356q0 39 16.5 157t147.5 255t291 137q139 0 223 -107.5t84 -275.5q0 -43 -16.5 -161.5t-140 -255t-281.5 -136.5q-141 0 -232.5 109.5t-91.5 277.5zM133 360q0 -150 81 -245t216 -95q-96 10 -156.5 101.5t-60.5 230.5q0 41 6 84q25 174 118 290t210 128 q-152 0 -268.5 -120t-131 -229.5t-14.5 -144.5zM279 1096q6 49 43 82t86 33t77.5 -33t22.5 -82q-8 -49 -45 -82t-88 -33q-47 0 -75.5 33t-20.5 82zM340 365q0 -104 42 -173t107 -69q80 0 148 90t80 175t12 118q0 106 -40.5 176t-108.5 70q-80 0 -147.5 -91.5t-80 -176.5 t-12.5 -119zM596 1094q6 49 43 82t86 33t78 -33t23 -82q-8 -49 -45 -82t-88 -33q-47 0 -76 33t-21 82z" />
<glyph unicode="&#xf7;" horiz-adv-x="0" />
<glyph unicode="&#xf8;" horiz-adv-x="907" d="M82 356q0 39 16.5 157t147.5 255t291 137q117 0 196 -80l86 123l78 -33l-111 -161q57 -96 58 -232q0 -43 -6 -86q-27 -195 -151 -331t-281 -136q-78 0 -142 35l-84 -123l-80 33l97 139q-115 111 -115 303zM133 360q0 -150 81 -245t216 -95q-96 10 -156.5 101.5 t-60.5 230.5q0 41 6 84q25 174 118 290t210 128q-152 0 -268.5 -120t-131 -229.5t-14.5 -144.5zM340 367q0 -49 12 -93l307 443q-35 35 -79 35q-80 0 -147.5 -91.5t-80 -176.5t-12.5 -117zM389 180q20 -27 45 -42t55 -15q80 0 148 90t80 175t12 120q0 37 -5 64.5t-17 66.5z " />
<glyph unicode="&#xf9;" horiz-adv-x="1099" d="M57 600l13 76q12 86 79.5 145.5t153.5 59.5q76 0 127 -49.5t51 -124.5q0 -20 -2 -31l-65 -465q-4 -31 13 -51.5t48 -20.5q29 0 63.5 29t84.5 98l55 76l74 524h235l-98 -692q0 -49 45 -49q18 0 36.5 14.5t18.5 34.5l12 78h74l-12 -78q-10 -84 -79 -144.5t-155 -60.5 q-76 0 -127 49.5t-51 126.5v19l-20 -27q-51 -74 -112.5 -121t-145.5 -47q-86 0 -142.5 56.5t-56.5 142.5q0 20 2 31l68 477q8 49 -43 49q-49 0 -58 -49l-12 -76h-74zM225 174q0 -68 49.5 -111t110.5 -43q21 1 29 3q-59 10 -91 41.5t-32 95.5q0 25 2 39l69 477 q8 47 -19.5 73.5t-70.5 26.5q-25 0 -41 -8q29 0 49.5 -27.5t14.5 -64.5l-68 -477q-2 -8 -2 -25zM363 1173q4 33 28.5 55.5t59.5 22.5t63 -21l258 -176l-20 -49l-346 96q-16 4 -32.5 22.5t-10.5 49.5zM705 174q-8 -66 33.5 -110t103.5 -44q16 0 24 3q-96 10 -96 120 q0 20 2 31l90 641h-67z" />
<glyph unicode="&#xfa;" horiz-adv-x="1099" d="M57 600l13 76q12 86 79.5 145.5t153.5 59.5q76 0 127 -49.5t51 -124.5q0 -20 -2 -31l-65 -465q-4 -31 13 -51.5t48 -20.5q29 0 63.5 29t84.5 98l55 76l74 524h235l-98 -692q0 -49 45 -49q18 0 36.5 14.5t18.5 34.5l12 78h74l-12 -78q-10 -84 -79 -144.5t-155 -60.5 q-76 0 -127 49.5t-51 126.5v19l-20 -27q-51 -74 -112.5 -121t-145.5 -47q-86 0 -142.5 56.5t-56.5 142.5q0 20 2 31l68 477q8 49 -43 49q-49 0 -58 -49l-12 -76h-74zM225 174q0 -68 49.5 -111t110.5 -43q21 1 29 3q-59 10 -91 41.5t-32 95.5q0 25 2 39l69 477 q8 47 -19.5 73.5t-70.5 26.5q-25 0 -41 -8q29 0 49.5 -27.5t14.5 -64.5l-68 -477q-2 -8 -2 -25zM473 1048l307 176q37 20 72 21q31 0 50.5 -22.5t15.5 -55.5t-22.5 -49.5t-43.5 -24.5l-371 -94zM705 174q-8 -66 33.5 -110t103.5 -44q16 0 24 3q-96 10 -96 120q0 20 2 31 l90 641h-67z" />
<glyph unicode="&#xfb;" horiz-adv-x="1099" d="M57 600l13 76q12 86 79.5 145.5t153.5 59.5q76 0 127 -49.5t51 -124.5q0 -20 -2 -31l-65 -465q-4 -31 13 -51.5t48 -20.5q29 0 63.5 29t84.5 98l55 76l74 524h235l-98 -692q0 -49 45 -49q18 0 36.5 14.5t18.5 34.5l12 78h74l-12 -78q-10 -84 -79 -144.5t-155 -60.5 q-76 0 -127 49.5t-51 126.5v19l-20 -27q-51 -74 -112.5 -121t-145.5 -47q-86 0 -142.5 56.5t-56.5 142.5q0 20 2 31l68 477q8 49 -43 49q-49 0 -58 -49l-12 -76h-74zM225 174q0 -68 49.5 -111t110.5 -43q21 1 29 3q-59 10 -91 41.5t-32 95.5q0 25 2 39l69 477 q8 47 -19.5 73.5t-70.5 26.5q-25 0 -41 -8q29 0 49.5 -27.5t14.5 -64.5l-68 -477q-2 -8 -2 -25zM266 1018l371 279l290 -279l-43 -51l-274 141l-313 -141zM705 174q-8 -66 33.5 -110t103.5 -44q16 0 24 3q-96 10 -96 120q0 20 2 31l90 641h-67z" />
<glyph unicode="&#xfc;" horiz-adv-x="1099" d="M57 600l13 76q12 86 79.5 145.5t153.5 59.5q76 0 127 -49.5t51 -124.5q0 -20 -2 -31l-65 -465q-4 -31 13 -51.5t48 -20.5q29 0 63.5 29t84.5 98l55 76l74 524h235l-98 -692q0 -49 45 -49q18 0 36.5 14.5t18.5 34.5l12 78h74l-12 -78q-10 -84 -79 -144.5t-155 -60.5 q-76 0 -127 49.5t-51 126.5v19l-20 -27q-51 -74 -112.5 -121t-145.5 -47q-86 0 -142.5 56.5t-56.5 142.5q0 20 2 31l68 477q8 49 -43 49q-49 0 -58 -49l-12 -76h-74zM225 174q0 -68 49.5 -111t110.5 -43q21 1 29 3q-59 10 -91 41.5t-32 95.5q0 25 2 39l69 477 q8 47 -19.5 73.5t-70.5 26.5q-25 0 -41 -8q29 0 49.5 -27.5t14.5 -64.5l-68 -477q-2 -8 -2 -25zM346 1096q6 49 43 82t86 33t77.5 -33t22.5 -82q-8 -49 -45 -82t-88 -33q-47 0 -75.5 33t-20.5 82zM663 1094q6 49 43 82t86 33t78 -33t23 -82q-8 -49 -45 -82t-88 -33 q-47 0 -76 33t-21 82zM705 174q-8 -66 33.5 -110t103.5 -44q16 0 24 3q-96 10 -96 120q0 20 2 31l90 641h-67z" />
<glyph unicode="&#xfd;" horiz-adv-x="894" d="M-49 -201q0 16 5 48t50 73t103 41q57 0 90.5 -40t25.5 -97l-20 -57q76 10 122 52t130 142l-215 741q-4 10 -16.5 16.5t-24.5 6.5q-49 0 -58 -49l-12 -76h-74l13 76q12 86 79.5 145.5t153.5 59.5q76 0 125 -45t64 -95l129 -481q47 123 85.5 278.5t63.5 327.5h131 q-74 -528 -281.5 -868t-482.5 -340q-82 0 -134 38t-52 103zM223 768q29 4 46.5 -13.5t23.5 -43.5l205 -707q12 18 27.5 43t21.5 51l-182 619q-18 66 -80 65q-31 0 -62 -14zM432 1061l307 176q37 20 72 21q31 0 50.5 -22.5t15.5 -55.5t-22.5 -49.5t-43.5 -24.5l-371 -94z" />
<glyph unicode="&#xfe;" horiz-adv-x="968" d="M20 -334l218 1542h235l-59 -432q51 59 114.5 94t126.5 35q117 0 193 -108.5t76 -270.5q0 -43 -16.5 -162.5t-131 -257t-252.5 -137.5q-133 0 -207 129l-61 -432h-236zM80 -283h67l201 1440h-65zM358 348q0 -100 29 -162.5t80 -62.5q59 0 116.5 93t70 180t12.5 128 q0 100 -30 164t-79 64q-59 0 -116.5 -92.5t-75.5 -223.5q-6 -47 -7 -88zM532 98q53 0 143.5 92.5t105 187.5t14.5 130q0 125 -59.5 195.5t-106.5 70.5q37 -27 62.5 -96.5t25.5 -157.5q0 -41 -12.5 -121t-61.5 -169t-111 -132z" />
<glyph unicode="&#xff;" horiz-adv-x="894" d="M-49 -201q0 16 5 48t50 73t103 41q57 0 90.5 -40t25.5 -97l-20 -57q76 10 122 52t130 142l-215 741q-4 10 -16.5 16.5t-24.5 6.5q-49 0 -58 -49l-12 -76h-74l13 76q12 86 79.5 145.5t153.5 59.5q76 0 125 -45t64 -95l129 -481q47 123 85.5 278.5t63.5 327.5h131 q-74 -528 -281.5 -868t-482.5 -340q-82 0 -134 38t-52 103zM223 768q29 4 46.5 -13.5t23.5 -43.5l205 -707q12 18 27.5 43t21.5 51l-182 619q-18 66 -80 65q-31 0 -62 -14zM311 1096q6 49 43 82t86 33t77.5 -33t22.5 -82q-8 -49 -45 -82t-88 -33q-47 0 -75.5 33t-20.5 82z M628 1094q6 49 43 82t86 33t78 -33t23 -82q-8 -49 -45 -82t-88 -33q-47 0 -76 33t-21 82z" />
<glyph unicode="&#x152;" horiz-adv-x="1648" d="M102 487v49.5t22.5 174t185.5 337t386 183.5q90 0 159 -31t118 -88q68 59 162.5 89t203.5 30q145 0 235.5 -56.5t90.5 -160.5q0 -20 -5 -57t-56.5 -82.5t-114.5 -45.5q-57 0 -94 39t-37 95v18q14 88 82 123q-12 4 -33 6t-39 2q-80 0 -149.5 -66.5t-75.5 -114.5t-6 -71 q0 -76 44 -122t99 -46h27l-21 -135h-18q-94 0 -168 -58.5t-83 -116.5t-9 -75q0 -76 60 -123t132 -47q238 0 311 217l97 -41q-35 -139 -170 -234t-316 -95q-195 0 -297 114q-63 -53 -141 -83.5t-162 -30.5q-203 0 -311.5 141t-108.5 362zM152 475q0 -207 96 -324.5 t244 -117.5q-115 31 -188 144.5t-73 295.5q1 57 11 135q31 225 152.5 380t256.5 194q-147 0 -297.5 -144.5t-176 -326t-25.5 -236.5zM401 487q0 -156 54.5 -253t150.5 -97q37 0 78 19.5t74 52.5q-12 35 -13 70q1 26 7 57q16 117 106 203t193 102q-76 14 -125 85t-49 146v23 q4 25 9 45.5t9 32.5q-61 104 -156 104q-115 0 -208 -136t-109 -246.5t-18.5 -144.5t-2.5 -63zM799 291q0 -113 93 -184.5t210 -71.5q-98 29 -161.5 96.5t-63.5 165.5q0 25 2 37q14 104 64 161.5t128 102.5q-92 -14 -173 -85t-90 -139.5t-9 -82.5zM928 887q0 -74 51 -131.5 t113 -71.5q-45 41 -65.5 80t-20.5 96l4 47q12 88 67.5 157t134.5 103q-94 -18 -181 -86t-101 -170q-2 -8 -2 -24z" />
<glyph unicode="&#x153;" horiz-adv-x="1505" d="M82 356q0 39 16.5 157t147.5 255t291 137q100 0 173.5 -59.5t106.5 -161.5q70 102 173.5 161.5t221.5 59.5q141 0 209 -64.5t68 -150.5q0 -20 -8 -80.5t-140.5 -137.5t-347.5 -77q-8 -55 -8 -110q0 -104 40 -148.5t108 -44.5q72 0 129 61.5t75 131.5l97 -21 q-31 -115 -123 -201t-246 -86q-113 0 -193.5 57.5t-119.5 155.5q-61 -100 -153.5 -160.5t-192.5 -60.5q-141 0 -232.5 109.5t-91.5 277.5zM133 360q0 -150 81 -245t216 -95q-96 10 -156.5 101.5t-60.5 230.5q0 41 6 84q25 174 118 290t210 128q-152 0 -268.5 -120 t-131 -229.5t-14.5 -144.5zM340 365q0 -104 41.5 -173t107.5 -69q80 0 148 90t80 175t12 118q0 106 -41 176t-108 70q-80 0 -147.5 -91.5t-80 -176.5t-12.5 -119zM768 367q0 -129 66.5 -219.5t166.5 -112.5q-61 43 -104 113.5t-43 191.5q0 43 6 96q25 172 97.5 270.5 t158.5 139.5q-121 -25 -220 -138.5t-113.5 -211t-14.5 -129.5zM1006 487q113 0 177 66.5t74 136.5q2 10 3 31q0 76 -56 76q-76 0 -130 -99.5t-68 -210.5zM1153 481q96 27 153.5 74t63.5 87t6 56q0 61 -35.5 94t-72.5 37q43 -27 43 -98l-4 -49q-8 -66 -57.5 -122t-96.5 -79z " />
<glyph unicode="&#x178;" horiz-adv-x="905" d="M-246 -174q0 14 6.5 46t51.5 72t100 40q53 0 86 -33t33 -84q0 -12 -2 -19q0 -18 -4.5 -30.5t-20.5 -34.5q86 0 173 46t153 136l-125 1122h-94l16 121h440l-16 -121h-92l78 -841q68 141 134 340.5t115 500.5h-81l16 121h297l-17 -121h-71q-109 -627 -368 -1028t-576 -401 q-96 0 -164 47t-68 121zM258 1087l121 -1077q12 12 25.5 29.5t33.5 48.5l-114 999h-66zM359 1413q6 49 43 82t86 33t77.5 -33t22.5 -82q-8 -49 -45 -82t-88 -33q-47 0 -75.5 33t-20.5 82zM676 1411q6 49 43 82t86 33t78 -33t23 -82q-8 -49 -45 -82t-88 -33q-47 0 -76 33 t-21 82z" />
<glyph unicode="&#x2000;" horiz-adv-x="810" />
<glyph unicode="&#x2001;" horiz-adv-x="1620" />
<glyph unicode="&#x2002;" horiz-adv-x="810" />
<glyph unicode="&#x2003;" horiz-adv-x="1620" />
<glyph unicode="&#x2004;" horiz-adv-x="540" />
<glyph unicode="&#x2005;" horiz-adv-x="405" />
<glyph unicode="&#x2006;" horiz-adv-x="270" />
<glyph unicode="&#x2007;" horiz-adv-x="270" />
<glyph unicode="&#x2008;" horiz-adv-x="202" />
<glyph unicode="&#x2009;" horiz-adv-x="324" />
<glyph unicode="&#x200a;" horiz-adv-x="90" />
<glyph unicode="&#x2010;" horiz-adv-x="679" d="M109 418l20 125h492l-21 -125h-491z" />
<glyph unicode="&#x2011;" horiz-adv-x="679" d="M109 418l20 125h492l-21 -125h-491z" />
<glyph unicode="&#x2012;" horiz-adv-x="679" d="M109 418l20 125h492l-21 -125h-491z" />
<glyph unicode="&#x2013;" horiz-adv-x="1331" d="M16 418l19 125h1331l-18 -125h-1332z" />
<glyph unicode="&#x2014;" horiz-adv-x="1441" d="M16 418l19 125h1442l-19 -125h-1442z" />
<glyph unicode="&#x2018;" horiz-adv-x="468" d="M219 1104q0 16 6 58t51.5 83t102.5 41q51 0 85 -33.5t34 -85.5v-18q-8 -45 -41 -82t-78 -49q4 -35 33.5 -73t72.5 -66l-49 -54q-125 74 -171 140.5t-46 138.5z" />
<glyph unicode="&#x2019;" horiz-adv-x="468" d="M178 879q49 27 90 65.5t56 73.5q-94 29 -80 131q8 55 53 96t102 41q51 0 85 -33.5t34 -85.5v-18q-14 -86 -75.5 -162t-231.5 -162z" />
<glyph unicode="&#x201a;" horiz-adv-x="1097" d="M102 487v49.5t22.5 174t185.5 337t386 183.5q199 0 292 -134t93 -345q0 -66 -22.5 -231t-163 -351t-373.5 -186q-203 0 -311.5 141t-108.5 362zM154 492q0 -203 96 -331t242 -128q-115 31 -188 144.5t-73 295.5q1 57 11 135q31 225 152.5 380t256.5 194 q-143 0 -296.5 -154t-177 -314.5t-23.5 -221.5zM401 487q0 -156 54.5 -253t150.5 -97q113 0 207 137.5t110.5 248t18.5 144t2 62.5q0 154 -55 251t-150 97q-115 0 -207.5 -136t-121.5 -333q-4 -25 -6.5 -58.5t-2.5 -62.5z" />
<glyph unicode="&#x201c;" horiz-adv-x="849" d="M219 1104q0 16 6 58t51.5 83t102.5 41q51 0 85 -33.5t34 -85.5v-18q-8 -45 -41 -82t-78 -49q4 -35 33.5 -73t72.5 -66l-49 -54q-125 74 -171 140.5t-46 138.5zM582 1102v24q4 16 8 47t49 72t102 41t91 -40t26 -97q-6 -45 -39 -82t-78 -49q0 -43 35 -79t70 -60l-47 -54 q-125 74 -171 140.5t-46 136.5z" />
<glyph unicode="&#x201d;" horiz-adv-x="849" d="M178 879q49 27 90 65.5t56 73.5q-94 29 -80 131q8 55 53 96t102 41q51 0 85 -33.5t34 -85.5v-18q-14 -86 -75.5 -162t-231.5 -162zM539 879q53 31 93 66.5t54 72.5q-94 29 -80 131q8 55 53.5 96t102.5 41t91 -40t26 -97q-10 -84 -74 -161t-232 -163z" />
<glyph unicode="&#x201e;" horiz-adv-x="849" d="M37 -150q43 25 87 65t56 73q-41 14 -63.5 50t-16.5 81q8 55 53.5 96t102.5 41q51 0 85 -34t34 -85v-18q-14 -86 -75.5 -162t-231.5 -162zM397 -150q47 27 90 66t56 72q-41 14 -63.5 50t-16.5 81q8 55 53 96t102 41t91 -40t26 -97q-12 -86 -72.5 -162t-232.5 -162z" />
<glyph unicode="&#x2022;" horiz-adv-x="645" d="M172 666q0 16 7 62t75 105.5t152 59.5q74 0 125 -49t51 -123q0 -20 -6.5 -67.5t-75 -107t-152.5 -59.5q-78 0 -127 51.5t-49 127.5z" />
<glyph unicode="&#x2026;" horiz-adv-x="1705" d="M86 119q8 55 53 96t103 41q57 0 91 -40t25 -97q-8 -53 -54 -94t-101 -41t-90 39t-27 96zM641 119q8 55 53 96t101 41q51 0 84.5 -34t33.5 -85v-18q-8 -53 -54 -94t-101 -41q-57 0 -91 40t-26 95zM1194 100v19q8 55 54 96t102 41q51 0 84.5 -34t33.5 -85v-18 q-8 -53 -54 -94t-101 -41q-51 0 -85 33.5t-34 82.5z" />
<glyph unicode="&#x202f;" horiz-adv-x="324" />
<glyph unicode="&#x2039;" horiz-adv-x="958" d="M57 311l107 39q0 -109 50 -165t165 -56q82 0 156.5 54.5t83 111.5t8.5 74q0 70 -55.5 127t-141.5 57h-18l18 137q78 0 145.5 56.5t74.5 109.5t7 74q0 78 -45 125t-116 47q-37 0 -56 -8q14 -14 20.5 -40t2.5 -53q-8 -59 -54.5 -100t-105.5 -41q-53 0 -88 35t-35 88v18 q14 92 132 159t251 67q147 0 243.5 -80t96.5 -197q0 -25 -7 -78t-80 -129.5t-161 -103.5q88 -14 151.5 -86t63.5 -176q0 -14 -12 -103.5t-139 -191.5t-305 -102q-174 0 -265.5 93t-91.5 238zM461 92q113 12 195.5 79t92 126t9.5 76q0 84 -65.5 140.5t-141.5 66.5 q51 -31 89 -83.5t38 -121.5q0 -20 -8 -75.5t-68.5 -120t-140.5 -87.5zM588 694q70 31 123 80t59 94t6 66q0 84 -57.5 136t-120.5 60q113 -63 113 -190q0 -14 -7.5 -61.5t-39 -96.5t-76.5 -88z" />
<glyph unicode="&#x203a;" horiz-adv-x="976" d="M33 342l10 66q215 178 341 372.5t216 444.5h293q-88 -229 -308 -471t-327 -287h260l25 166h235l-24 -166h129l-17 -125h-129l-47 -342h-235l47 342h-469zM297 592q4 0 96 99.5t189.5 228.5t152.5 254h-102q-49 -150 -146.5 -319t-189.5 -263zM512 51h68l73 531h-65z" />
<glyph unicode="&#x205f;" horiz-adv-x="405" />
<glyph unicode="&#x2122;" horiz-adv-x="1685" d="M180 1038l23 170h557l-25 -170h-90l12 80h-108l-80 -561h51l-12 -90h-260l14 90h51l78 561h-108l-13 -80h-90zM686 467l14 90h54l170 561h-66l12 90h246l68 -454l194 454h236l-10 -90h-66l12 -561h62l-15 -90h-270l12 90h39l-4 395l-209 -485h-133l-59 485l-119 -395h51 l-14 -90h-205z" />
<glyph unicode="&#x25fc;" horiz-adv-x="901" d="M0 0v901h901v-901h-901z" />
</font>
</defs>
</svg>
